/* XPM */
static char *_6008d98abe34cc4876e857a9010aabdPaA8JBk65oVW1wQ7[] = {
/* columns rows colors chars-per-pixel */
"20 20 15 1 ",
"  c None",
". c #743F39",
"X c #3D3D54",
"o c #3E3F55",
"O c #3F3F55",
"+ c #41425B",
"@ c #42435B",
"# c #464762",
"$ c #4E5975",
"% c #805042",
"& c #995E48",
"* c #8F645F",
"= c #B86F50",
"- c #E4A672",
"; c #696682",
/* pixels */
"###+XXX++++++++OO@##",
"#######++++####@@###",
"####################",
"####################",
"+###################",
"+###################",
"+###################",
"X###################",
"X##################O",
"X##################;",
"+###################",
"+###################",
"####################",
"####################",
"@##############@@###",
"O@############@OO@##",
"                -&&&",
"                -%$=",
"                -%&=",
"                *..."
};
