/* XPM */
static char *df236f1ccc3349c0e2aa140011a5b54bLNMyT0yS8V92D0M6[] = {
/* columns rows colors chars-per-pixel */
"40 40 89 1 ",
"  c #289500",
". c #2B9700",
"X c #2F9B00",
"o c #309A00",
"O c #309C00",
"+ c #359D01",
"@ c #369E01",
"# c #389F03",
"$ c #389F09",
"% c #35A300",
"& c #39A200",
"* c #3CA200",
"= c #3CA500",
"- c #39A204",
"; c #3BA306",
": c #3CA506",
"> c #3BA10B",
", c #3EA30A",
"< c #3EA30D",
"1 c #3FA50F",
"2 c #46AC07",
"3 c #40A508",
"4 c #41A80D",
"5 c #46AC0E",
"6 c #42A713",
"7 c #42A715",
"8 c #47AD13",
"9 c #42A914",
"0 c #46AA16",
"q c #49AE12",
"w c #40A518",
"e c #45A919",
"r c #45AB18",
"t c #45AB1A",
"y c #47AD1B",
"u c #48AC1C",
"i c #4AAD1D",
"p c #4BAE1F",
"a c #4BB210",
"s c #51B51E",
"d c #4BAE21",
"f c #4BAE22",
"g c #4FAF25",
"h c #4EB022",
"j c #4FB123",
"k c #51B323",
"l c #51B324",
"z c #50B225",
"x c #53B324",
"c c #55B725",
"v c #51B328",
"b c #52B22A",
"n c #54B42A",
"m c #55B52A",
"M c #55B52D",
"N c #54B42E",
"B c #56B62F",
"V c #58B72B",
"C c #58B72E",
"Z c #57B82D",
"A c #5AB92B",
"S c #59BA2B",
"D c #5DBD28",
"F c #5CBB2F",
"G c #5BBC2F",
"H c #5DBD2D",
"J c #5DBD2F",
"K c #58B731",
"L c #59B830",
"P c #5BBA31",
"I c #5CBB31",
"U c #5BBC30",
"Y c #5EBC30",
"T c #5EBE31",
"R c #5EBC33",
"E c #5EBE33",
"W c #5BBA35",
"Q c #5CB934",
"! c #5CBB34",
"~ c #5CBB35",
"^ c #5CBB36",
"/ c #5EBC36",
"( c #5FBB39",
") c #5EBC38",
"_ c #60BE36",
"` c #60BC38",
"' c #60BC39",
"] c #61BF38",
"[ c #60BE39",
/* pixels */
"/RRRR_//UL//////RRRG/RU//U//////`IILIII`",
"/RRRR//RR///RR//RRRGRLL//W//////~QIIIIII",
"/RRRR/_/R///RRRURRRURUG/W/))~~//LIIFIII_",
"/////_////RR/_rlRRRR////)))B7BR/_I_F~_I`",
"//////]/_/RLXr9mRRRRR///~u*q4AU/L_R`I_H:",
"/////__)//RL.0rART]/////_8&5qAHR_F_F_HR&",
"/////)))//RRlmALT//)////~CmCCI_FI_I_I_Rv",
"//////////RHRIR/T]E)////~_W]~II__F_F_FR~",
"////]W~~~IRHGRR__~~(_~_~`~``~~I~RRRRRRR~",
"//_/~KKI_IF_HR//_]~'~`~`~_`~~~I_RRRRRRR/",
"//~~WwbAAI_I//_)_~''`Q_~`~`~_~_IRRRRRRR/",
"/~~~Wf1;=II]//)_``'```~`~_~_~_I_RRRRRRR/",
"//RIImu,;II~//_)`_]~_~`~_~_~_~`~////////",
"/RRIIILLCIW~//)_~`~`~`~_~`~`~_~_////////",
"/RRR~I~IUR~W///))_`~_~_~`~_~_~`~////////",
"/RRRIIIIL/W///)__(_`~`~`~_~`~`~_////////",
"/////~~~~W/W(]CK/))/////////////////////",
"///////////RBAulR///////////////////////",
"/////////R~GX83sA///////////////////////",
"//////////WAX5ucL///////////////////////",
"////////////I~~~_///////////////////////",
"////////////~``~////////////////////////",
"////~)//////_~_~///W////////////////////",
"//~~WBW/I///~`~`//WB//~()_)/)///////////",
"/R~~IwgbN`~~`~_~//B9jbA/_)//R)//////////",
"RR~~Wf:34_``W]~`//Ku,,BR/_]/_]//////////",
"R_IILcq25H~``~`~/RAZ69ALR//]/]//////////",
"HI_F/IGAAF__~_~_RRRUHRH/R//R)///////////",
"GRHHRRR/I_FFI`~_RRHHHRHRR////~//////////",
"HUHRH///_IFD`I`~RRHRRHR/R/_)~~//////////",
"AlIHHRR/I_I___CVII_RRRRRRR/LBR//RRRRRRR/",
"u4HRRRR/_I_Wfl<fI_I_RRRRRvjj&mLHRRRRRRR/",
"OcIII_I_I__F 64bI_I_I__I`e+06CIIIF~~RRR/",
"pFLIII_I_IFFeggCII_I_PI`~xdbbCPIK_F_RRR/",
"LI~II_I_I_I`III~I_I`PP`I~``_PICI~LIIRRR/",
"~I~III_~_I`F`_I__I`~`_~`_I`II__IIII_RRR/",
"~~III~I_F_F`I_I_F_I`~`~~~`_I_ICIL~~/R///",
"~~~IIlKLIF`I_I_I_I`I`~```~~_I__ImALUR///",
"~~~II4efg_L_I_I_I_I`~````~_~_P__u7hlA///",
"~]~_~l$##__F_F_I_I_I_~I_~_~`P_`Q)>X%aR//"
};
