/* XPM */
static char *result[] = {
/* columns rows colors chars-per-pixel */
"40 40 101 2 ",
"   c black",
".  c gray13",
"X  c #263238",
"o  c #9F9B76",
"O  c #A79A68",
"+  c #A79B70",
"@  c #ACA06D",
"#  c #ADA479",
"$  c #BEB571",
"%  c #BEB67D",
"&  c #CFBC5F",
"*  c #D0B95F",
"=  c #C9B767",
"-  c #CEBB61",
";  c #CCBC6D",
":  c #D1BD63",
">  c #C4B373",
",  c #CCBE72",
"<  c #C2B97C",
"1  c #D1BE7C",
"2  c #DAC257",
"3  c #D7C25F",
"4  c #DBC35B",
"5  c #D5C164",
"6  c #DCC662",
"7  c #D5C36C",
"8  c #D9C46B",
"9  c #DFCD6F",
"0  c #CFC175",
"q  c #CDC17C",
"w  c #D6C877",
"e  c #DCCB73",
"r  c #D4C57A",
"t  c #D7CA7D",
"y  c #DBCD7C",
"u  c #E0CC74",
"i  c #E6D273",
"p  c #EED777",
"a  c #EDD873",
"s  c #E6D47D",
"d  c #EED87C",
"f  c #F1D977",
"g  c #F1DA79",
"h  c #F6E17D",
"j  c #FAE27B",
"k  c #A49F81",
"l  c #BDB681",
"z  c #C0B886",
"x  c #CAC085",
"c  c #DBCE81",
"v  c #DED285",
"b  c #DDD288",
"n  c #D6CA94",
"m  c #DED195",
"M  c #DED29F",
"N  c #E2D283",
"B  c #EEDC86",
"V  c #E6D88D",
"C  c #ECDC8B",
"Z  c #F4DF86",
"A  c #F4DF89",
"S  c #E3D293",
"D  c #E6D895",
"F  c #EBDD93",
"G  c #E8DD9F",
"H  c #F2DF96",
"J  c #F2DF99",
"K  c #F6E284",
"L  c #FCE684",
"P  c #FEE985",
"I  c #F5E28C",
"U  c #FBE68B",
"Y  c #FDE98B",
"T  c #F5E494",
"R  c #F9E693",
"E  c #F7E997",
"W  c #FDEB93",
"Q  c #F7E799",
"!  c #F9E79A",
"~  c #F7E89C",
"^  c #FDED9C",
"/  c #FFF291",
"(  c #FFF29C",
")  c #E4DCAC",
"_  c #ECE1AB",
"`  c #F3E7A3",
"'  c #F6E9A2",
"]  c #FDEDA2",
"[  c #F1E4A8",
"{  c #FEEFAC",
"}  c #FFF2A4",
"|  c #FFF2AB",
" . c #FFF9AC",
".. c #E7E1B8",
"X. c #FFF5B3",
"o. c #FFF9B2",
"O. c #FFF5BA",
"+. c #FFF9BB",
"@. c #F7EEC2",
"#. c #FFF9C3",
"$. c #FFFBCC",
/* pixels */
". . . . . . . . . . . . . . . . . . . . . . . . . . . . . . . . . . .   . . . . ",
". X X X X X X X X X X X X X X X X X X X X X X X X X X X X X X X X X X   X X X . ",
". X X X X X X X X X X X X X X X X X X X X X X X X X X X X X X X X X X X X X X . ",
"  X X X X X X X X X X X X X X X X X X X X X X X X X X X X X X X X X X X X X X . ",
"  X X X X X X X X X X X X X X X X X X X X X X X X X X X X X X X X X X X X X X . ",
"  X X X X X X X X X X X X X X X X X X X X X X X X X X X X X X X X X X X X X X . ",
"  X X X X X       X X X X X X X X X X X X X X X X X X X X X X X X X X X X X X . ",
". X X X X X X X X X X X X X X X X X X X X X X X X X X X X X X X X X X X X X X . ",
". X X X X X X X X X X X X X X X X X X X X X X X X X X X X X X X X X X X X X X . ",
". X X X X X X X X X X X X X X X X X X X X X X X X X X X X X X X X X X X X X X . ",
". X X X X X X X X X X X X X X X X X X X X X X X X X X X X X         X X X X X . ",
". X X X X X X X X X X X X X X X X +.O.O.O.#.$.X X X X X X X X X X X X X X X X . ",
". X X X X X X X X X X X X X n O.] y ; 0 0 r m O.#.) X X X X X X X X X X X X X . ",
". X X X X X X X X X X X S ! A 8 - s I T ! ' C ; ; C | O.X X X X X X X X X X X . ",
". X X X X X X X X X X J U p f L Y Y ^ } | } ^ W h 6 8 N +.X X X X X X X X X X . ",
". X X X X X X X X X H Z g L L Y W ^ | | X.| W Y P P h e y O.X X X X X X X X X . ",
". X X X X X X X X J K g P P P K B  .o.` '  .( Y Y L P P e y $.X X X X X X X X . ",
". X X X X X X X 1 U g P P L Y I 7 } o.b w ( ( I P L L P P y D @.X X X X X X X . ",
". X X X X X X X H d L L P Y ( ( y }  .C s / ( / Y P P P Y I w +.k X X X X X X . ",
". X X X X X X > U g P L L d |  . .} ( } / Y ( ( W R Y R ( } y D ..X X X X X X . ",
". X X X X X X ! W K Y Y L : T ^ ( R R B h K R I ( ( R ( } ( I r $.X X X X X X . ",
". X X X X X X R } U R W ( e 8 & K Y ( 7 3 4 h Y ^ | ^ } ( R ^ , +.o X X X X X . ",
". X X X X X z } ^ R ^ ] ( ( / 4 h Y ( / / a 6 Y ^  .} ] ! ^ ] V m $.X X X X X . ",
". X X X X X <  .T ^ } ] } / P 4 j Y ( ( / / K W T Q ] ! ] ] | ' x #.X X X X X . ",
". X X X X X l o.] } } } ( U P 4 j P R ( W W W W T } ! ] { | | ~ q +.X X X X X . ",
". X X X X X l o.| ] ] ] Y L j 2 j P / 7 8 5 d ( } ] ] { { { | ~ 0 O.X X X X X . ",
". X X X X X z O.| | ( R Y L P 4 h P ( C B R u B ~  .| { { } ] T , O.X X X X X . ",
"  X X X X X x +.| ] R U P L L 3 h Y } ] }  .y s ] O.X.{ } ] W s c #.X X X X X . ",
"    X X X X X [ o.Q U P P j / P K Y  . . . .E R | | | } ] W Y & ] X X X X X X   ",
"  X X X X X X _ | E Y L j 4 P / Y W } | | ~ ] | ] F ] ] W Y L 7 O.X X X X X X   ",
". X X X X X X O  .( I P j 2 6 6 9 ( } t V } T r N ^ ^ W U L f U n X X X X X X   ",
". X X X X X X X G } W P j j p i 5 /  .0 v  .{ D Q ( W Y L L d ! X X X X X X X   ",
". X X X X X X X @ X.^ U Y Y W Y 8 (  .N V  .| | } W L L L g U S X X X X X X X . ",
". X X X X X X X X m | ^ R U ^ ^ * 7 ( C = N  .] W U L L g A J   X X X X X X X . ",
". X X X X X X X X X m X.] } ] ] A A ] ] R R ] E Y Y L g K H         X X X X X . ",
". X X X X X X X X X X M O.X.O.' ] | { | | } E R K f d U J X X X   X X X X X X . ",
". X X X X X X X X X X X # _ O.O.+.o.| X.| ~ ] } ^ I H , X X X X X X X X X X X . ",
". X X X X X X X X X X X X X + _ _ O.+.O.o.X.} T ! > X X X X X X X X X X X X X . ",
". X X   X X X X X X X X X X X X X x < % $ $ ; X X X X X X X X X X X X X X X X . ",
". . .   . . . . . . . . .         . . . . . . . . . . . . . . . . . . . . . . . "
};
