/* XPM */
static char *result[] = {
/* columns rows colors chars-per-pixel */
"40 40 103 2 ",
"   c black",
".  c gray13",
"X  c #263238",
"o  c #9F9B76",
"O  c #A79A68",
"+  c #A79B70",
"@  c #ACA06D",
"#  c #ADA479",
"$  c #BEB571",
"%  c #BEB67D",
"&  c #D0B84E",
"*  c #CFBC5F",
"=  c #C9B767",
"-  c #CEBB61",
";  c #C0B56D",
":  c #CCBC6D",
">  c #C4B373",
",  c #CCBE72",
"<  c #C2B97C",
"1  c #CDBB79",
"2  c #D1BE7C",
"3  c #DAC257",
"4  c #D7C25F",
"5  c #DBC35B",
"6  c #D5C164",
"7  c #DCC662",
"8  c #D5C36C",
"9  c #D9C46B",
"0  c #DFCD6F",
"q  c #CFC175",
"w  c #CDC17C",
"e  c #D6C877",
"r  c #DCCB73",
"t  c #D4C57A",
"y  c #D7CA7D",
"u  c #DBCD7C",
"i  c #E0CC74",
"p  c #E0CE7B",
"a  c #E6D273",
"s  c #EED777",
"d  c #EDD873",
"f  c #E6D47D",
"g  c #EED87C",
"h  c #F1D977",
"j  c #F1DA79",
"k  c #F6E17D",
"l  c #FAE27B",
"z  c #A49F81",
"x  c #BDB681",
"c  c #C0B886",
"v  c #C9BF91",
"b  c #DBCE81",
"n  c #DED285",
"m  c #DDD288",
"M  c #D6CA94",
"N  c #DED195",
"B  c #DED29F",
"V  c #E2D283",
"C  c #EEDC86",
"Z  c #E6D88D",
"A  c #ECDC8B",
"S  c #F4DF89",
"D  c #E3D293",
"F  c #E6D895",
"G  c #EBDD93",
"H  c #E8DD9F",
"J  c #F2DF96",
"K  c #F2DF99",
"L  c #F6E284",
"P  c #FCE684",
"I  c #FEE985",
"U  c #F5E28C",
"Y  c #FBE68B",
"T  c #FDE98B",
"R  c #F5E494",
"E  c #F9E693",
"W  c #F7E997",
"Q  c #FDEB93",
"!  c #F7E799",
"~  c #F9E79A",
"^  c #F7E89C",
"/  c #FDED9C",
"(  c #FFF291",
")  c #FFF29C",
"_  c #EDDFA6",
"`  c #E4DCAC",
"'  c #ECE1AB",
"]  c #F3E7A3",
"[  c #F6E9A2",
"{  c #FDEDA2",
"}  c #F1E4A8",
"|  c #FEEFAC",
" . c #FFF2A4",
".. c #FFF2AB",
"X. c #FFF9AC",
"o. c #E7E1B8",
"O. c #FFF5B3",
"+. c #FFF9B2",
"@. c #FFF5BA",
"#. c #FFF9BB",
"$. c #F7EEC2",
"%. c #FFF9C3",
"&. c #FFFBCC",
/* pixels */
". . . . . . . . . . . . . . . . . . . . . . . . . . . . . . . . . . .   . . . . ",
". X X X X X X X X X X X X X X X X %.@.@.@.%.&.X X X X X X X X X X X X   X X X . ",
". X X X X X X X X X X X X X M @. .u : q t w D @.%.` X X X X X X X X X X X X X . ",
"  X X X X X X X X X X X D ~ S 9 - f U R ^ ^ A : 8 A { @.X X X X X X X X X X X . ",
"  X X X X X X X X X X K U s h I T T /  ... ./ T L 7 9 V %.X X X X X X X X X X . ",
"  X X X X X X X X X ! S j l I T Q / ....O. .W Y I I k 0 y @.X X X X X X X X X . ",
"  X X X X X       K L j I I P U C X.+.] ] X.) Y T I I I r b %.X X X X X X X X . ",
". X X X X X X X 2 U j I I I Y U 8  .+.m e ) ) U I I I I T r F $.X X X X X X X . ",
". X X X X X X X E j P P I T ) ) p  .X.A f ( ) Q P P P Y T U y @.z X X X X X X . ",
". X X X X X X > U j I P P g  .X.X. .)  .( T ) ) ( E T E )  .u F o.X X X X X X . ",
". X X X X X X ~ Q P Y I I - R / ) W W C L L T E  .) W )  ./ U t &.  X X X X X . ",
". X X X X X X W  .E U / / r 9 * L Y ( 9 4 5 L Y /  ./  ./ E / , %.o X X X X X . ",
". X X X X X c  ./ E / )  .) ( 5 k T ) ( T d 7 T / X.{ { W /  .Z N &.X X X X X . ",
". X X X X X % X.~ ~ {  .) Q I 5 l T ) ) ) ( L T R ~ { ~ { { ..[ w %.X X X X X . ",
". X X X X X % +. . ... .) Y I 3 l T W ( Q Q Q Q R  .~ { | ....^ w #.X X X X X . ",
". X X X X X x +...{  ./ Y P I 3 l T Q 8 9 6 g )  .{ { ..| | ..^ q @.X X X X X . ",
". X X X X X c #... .) E T I l 5 l T ) A C E i C ^ ..O.| | ..{ R : @.X X X X X . ",
". X X X X X v #... .E T I I I 4 k T  .{  .X.p f  .@...| {  .Q f b %.X X X X X . ",
". X X X X X X } O.! T I I I ( T L Y X.X.+.X.! R  .X.....{ Q I -  .X X X X X X . ",
". X X X X X X _ X.W I I l 5 I T I E  .X. .^ { .. .G [  .Q Y P 9 @.X X X X X X . ",
". X X X X X X O O./ U I l & 7 7 a ) ) y Z  .R t V / / ~ I P j E M X X X X X X . ",
". X X X X X X X H { Q P I j j a 6 ) X.q n X.{ G R  .Q I P P j ~ X X X X X X X . ",
". X X X X X X X @ ../ Y I Y Q Q 9 ( X.n Z X.X.X.{ Q I P P j U D X X X X X X X . ",
". X X X X X X X X N ..) E Y ) Q 4 8 ) A = V  . .Q Y P P j S K X X X X X X X X . ",
". X X X X X X X X X D ..{  .{ { S S { { E W  .W Y T l j U J X X X X X X X X X . ",
". X X X X X X X X X X B #.@.@.[ { ..| | .. .~ R P j s Y K X X X X X X X X X X . ",
". X X X X X X X X X X X # ' O.@.#.O.| O...[ {  ./ S J 1 X X X X X X X X X X X . ",
"  X X X X X X X X X X X X X + ` ' #.#.#.+.X.{ R ^ > X X X X X X X X X X X X X . ",
"    X X X X X X X X X X X X X X X c < < $ ; : X X X X X X X X X X X X X X X X   ",
"  X X X X X X X X X X X X X X X X X X X X X X X X X X X X X X X X X X X X X X   ",
". X X X X X X X X X X X X X X X X X X X X X X X X X X X X X X X X X X X X X X   ",
". X X X X X X X X X X X X X X X X X X X X X X X X X X X X X X X X X X X X X X   ",
". X X X X X X X X X X X X X X X X X X X X X X X X X X X X X X X X X X X X X X . ",
". X X X X X X X X X X X X X X X X X X X X X X X X X X X X X X   X X X X X X X . ",
". X X X X X X X X X X X X X X X X X X X X X X X X X X X X X         X X X X X . ",
". X X X X X X X X X X X X X X X X X X X X X X X X X X X X X X X   X X X X X X . ",
". X X X X X X X X X X X X X X X X X X X X X X X X X X X X X X X X X X X X X X . ",
". X X X X X X X X X X X X X X X X X X X X X X X X X X X X X X X X X X X X X X . ",
". X X   X X X X X X X X X X X X X X X X X X X X X X X X X X X X X X X X X X X . ",
". . .   . . . . . . . . .         . . . . . . . . . . . . . . . . . . . . . . . "
};
