/* XPM */
static char *result[] = {
/* columns rows colors chars-per-pixel */
"40 40 134 2 ",
"   c black",
".  c #1E1E1E",
"X  c #241800",
"o  c #312500",
"O  c #352F15",
"+  c #37321D",
"@  c #3A351E",
"#  c #3D391D",
"$  c #1D252A",
"%  c gray13",
"&  c #393622",
"*  c #3C3926",
"=  c #263238",
"-  c #423406",
";  c #5B4C0D",
":  c #524615",
">  c #534618",
",  c #574B1C",
"<  c #625214",
"1  c #64551C",
"2  c #66581C",
"3  c #574B22",
"4  c #5D522E",
"5  c #6C5C22",
"6  c #63572D",
"7  c #695B29",
"8  c #72632D",
"9  c #7B6B28",
"0  c #786933",
"q  c #7F7038",
"w  c #7C7651",
"e  c #76775D",
"r  c #7A785A",
"t  c #837E57",
"y  c #8C8053",
"u  c #85805E",
"i  c #848064",
"p  c #9F9967",
"a  c #9F9B76",
"s  c #AA9A60",
"d  c #AB9C69",
"f  c #A29C7A",
"g  c #AFA163",
"h  c #B0A473",
"j  c #D4B84A",
"k  c #D3BA59",
"l  c #CCB662",
"z  c #C4B268",
"x  c #C8B46A",
"c  c #CFBB6D",
"v  c #D3BE65",
"b  c #D3BE6D",
"n  c #C1B374",
"m  c #C9B975",
"M  c #C2B57A",
"N  c #D3BF70",
"B  c #DEC255",
"V  c #DCC35C",
"C  c #E1C85B",
"Z  c #D7C164",
"A  c #DBC363",
"S  c #D4C16B",
"D  c #DBC46A",
"F  c #DECB6F",
"G  c #D2C174",
"H  c #DCC773",
"J  c #DCCA75",
"K  c #D7C57A",
"L  c #DCCC7C",
"P  c #E5CE64",
"I  c #E3CC6C",
"U  c #F3D86E",
"Y  c #E2CE73",
"T  c #E7D271",
"R  c #E9D372",
"E  c #E5D27C",
"W  c #E9D47C",
"Q  c #EED97D",
"!  c #F4DB73",
"~  c #F0D97C",
"^  c #FBE277",
"/  c #F7E07E",
"(  c #FBE37C",
")  c #FFE97E",
"_  c #A39F82",
"`  c #C3B682",
"'  c #C6B882",
"]  c #CBBE8B",
"[  c #DFD18A",
"{  c #D6CA94",
"}  c #E3CF80",
"|  c #E3D184",
" . c #ECD887",
".. c #E2D28C",
"X. c #E9D78A",
"o. c #ECDA8B",
"O. c #F2DD84",
"+. c #F2DE8C",
"@. c #E1D195",
"#. c #E6D890",
"$. c #ECDC95",
"%. c #F5DF90",
"&. c #F6E085",
"*. c #FCE584",
"=. c #FFE983",
"-. c #F6E28C",
";. c #FBE68B",
":. c #FEEA8B",
">. c #FFF18D",
",. c #F5E393",
"<. c #FAE693",
"1. c #FEEB93",
"2. c #F6E69A",
"3. c #F9E69B",
"4. c #FDEC9C",
"5. c #FFF294",
"6. c #FFF39D",
"7. c #E3DCAD",
"8. c #F2E2A3",
"9. c #F6E9A5",
"0. c #FEEDA3",
"q. c #F3E6A8",
"w. c #FDEEAC",
"e. c #FFF2A4",
"r. c #FFF8A1",
"t. c #FFF2AC",
"y. c #FFFBAC",
"u. c #E5E2B8",
"i. c #FFF5B3",
"p. c #FFFAB3",
"a. c #FFF6B9",
"s. c #FFFBBB",
"d. c #FFFBC2",
"f. c #FFFDCC",
/* pixels */
"% % % % % % % % % % % % % % % % % % % % $ . % % % % % % % % % % % % %   % % % % ",
"% = = = = = = = = = = = = = = = = = = = = = = = = = = = = = = = = = =   = = = % ",
"% = = = = = = = = = = = = = = = = = = = = = = = = = = = = = = = = = = = = = = % ",
"  = = = = = = = = = = = = = = = = = = = = = = = = = = = = = = = = = = = = = = % ",
"  = = = = = = = = = = = = = = = = = = = = = = = = = = = = = = = = = = = = = = % ",
"  = = = = = = = = = = = = = = = = * & @ # @ * = = = = = = = = = = = = = = = = % ",
"  = = = = =       = = = = = # t d d.p.i.p.s.f.a r & = = = = = = = = = = = = = % ",
"% = = = = = = = = = = = = t { s.4.J v Z S G ..a.d.7.f = = = = = = = = = = = = % ",
"% = = = = = = = = = = 8 X.<.O.A k R -.-.3.4. .S Z Q e.i.u = = = = = = = = = = % ",
"% = = = = = = = = = 5 %.*.U ! ^ =.=.4.w.i.t.5.=.! C V E s.u = = = = = = = = = % ",
"% = = = = = = = = 5 -.~ ! ^ =.=.:.4.t.i.a.w.1.;.=.=.^ I I p.u       = = = = = % ",
"% = = = = = = = 5 -.*.! =.=.*.-.-.p.s.q.q.y.6.;.:.*.=.) P J d.i = = = = = = = % ",
"% = = = = = = = N *.! =.) *.;.-.b 4.s.[ J 5.6.-.=.=.=.=.=.J #.a.= = = = = = = % ",
"% = = = = = = q *.U ^ =.=.:.6.4.| e.p.o.W 5.r.4.;.*.=.*.:.-.H a._ = = = = = = % ",
"% = = = = = o x O.! =.*.( ~ p.i.y.e.e.r.:.:.6.e.4.;.:.;.4.e.J  .u.= = = = = = % ",
"% = = = = $ < <.1.*.=.:.=.v 3.0.4.<.,.&./ ( :.-.e.6.<.6.t.6.*.S f.e = = = = = % ",
"% = = = = = 9 :.r.;.;.1.5.H D k &.;.4.D B B ^ :.e.y.0.e.0.<.1.b s.a = = = = = % ",
"% = = = = = m 6.4.,.4.e.e.6.>.B ^ :.e.1.:.U V :.4.i.w.0.<.4.e.o.@.f.& = = = = % ",
"% = = = = = n y.<.4.0.t.w.1.=.B ( =.r.e.r.5.O.:.%.3.e.<.0.0.t.4.G d.+ = = = = % ",
"% = = = = = M y.4.t.t.t.0.:.) B ^ :.<.4.1.1.1.1.,.e.<.4.w.w.i.3.G s.+ = = = = % ",
"% = = = = = h p.t.w.t.4.;.=.) B ^ =.1.D A V ~ 6.e.e.0.w.t.w.t.3.S i.+ = = = = % ",
"% = = = = = ' s.t.t.e.<.*.=.=.V ^ :.e.+.O.;.Y  .9.i.i.w.w.w.e.<.v i.+ = = = = % ",
"% = = = = = { s.t.0.;.*.=.=.:.A / :.y.9.t.y.Y E 0.a.a.w.w.0.:.W J s.& = = = = % ",
"% = = = = = 7 8.p.2.:.=.( =.5.:.*.;.y.a.s.p.<.<.t.i.t.w.e.1.=.k e.p = = = = = % ",
"% = = = = = : $.y.4.;.) ^ B =.>.:.<.e.p.t.2.6.e.e.$.0.e.1.*.) A s.w = = = = = % ",
"% = = = = = X s t.6.*.=.) j C V T 5.e.L o.e.,.K } 1.e.1.;.*.U *.{ O = = = = = % ",
"% = = = = = = 6 $.e.:.*.( ! ! R v 6.y.G | y.w.$.3.e.:.*.*.( U <.y = = = $ = = % ",
"  = = = = = = = g e.1.:.=.:.1.:.F 5.y.| X.p.i.i.t.1.*.*.=.! *.| = = = = = = = % ",
"    = = = = = = , X.e.4.;.<.e.1.k P 4.o.l E t.w.1.=.*.=.! ~ -.8 = = = = = = =   ",
"  = = = = = = = = : @.e.4.e.w.0.O.O.0.0.<.<.0.1.;.=.^ ! *.+.1 = = = =   = = =   ",
"% = = = = = = = = = > @.s.p.a.9.9.t.w.w.t.e.4.<.&.! U *.+.2 = = = = = $ = = =   ",
"% = = = = = = = = = = 3 h 7.w.s.s.a.w.w.y.3.4.e.5.-.&.c 5 = = = = = = = = = =   ",
"% = = = = = = = = = = = = 4 d 8.8.s.s.s.p.y.6.;.1.z 0 = = = = = = = = = = = = % ",
"% = = = = = = = = = = = = = = - 7 ] ` ` m h m 9 ; o = = = = =   = = = = = = = % ",
"% = = = = = = = = = = = = = = = = = = = = = = = = = = = = =         = = = = = % ",
"% = = = = = = = = = = = = = = = = = = = = = = = = = = = = = = =   = = = = = = % ",
"% = = = = = = = = = = = = = = = = = = = = = = = = = = = = = = = = = = = = = = % ",
"% = = = = = = = = = = = = = = = = = = = = = = = = = = = = = = = = = = = = = = % ",
"% = =   = = = = = = = = = = = = = = = = = = = = = = = = = = = = = = = = = = = % ",
"% % %   % % % % % % % % %         % % % % % % % $ % % % % % % % % % % % % % % . "
};
