/* XPM */
static char *_a81c48617fe4a9cfe748f0e4fbd7a1cUgHBBpYU6hlbpoqB[] = {
/* columns rows colors chars-per-pixel */
"40 40 181 2 ",
"   c #020000",
".  c #0A0100",
"X  c #140400",
"o  c #1B0201",
"O  c #180A04",
"+  c #101000",
"@  c #240702",
"#  c #2D0E03",
"$  c #330201",
"%  c #310D03",
"&  c #3D0907",
"*  c #251403",
"=  c #2C1703",
"-  c #24160D",
";  c #2B150B",
":  c #2D190C",
">  c #351204",
",  c #3C1404",
"<  c #3B1C07",
"1  c #36170A",
"2  c #351A0C",
"3  c #341C13",
"4  c #311E18",
"5  c #11240C",
"6  c #242307",
"7  c #352A05",
"8  c #3A320D",
"9  c #3D2313",
"0  c #382819",
"q  c #2A3111",
"w  c #373914",
"e  c #393939",
"r  c #480A03",
"t  c #570304",
"y  c #461706",
"u  c #4B1403",
"i  c #471C07",
"p  c #4A1B04",
"a  c #521903",
"s  c #670507",
"d  c #690504",
"f  c #45220A",
"g  c #4B210B",
"h  c #56250A",
"j  c #5C220B",
"k  c #58240A",
"l  c #412113",
"z  c #4B2612",
"x  c #462814",
"c  c #532C14",
"v  c #582816",
"b  c #5D2C15",
"n  c #4E321C",
"m  c #53321C",
"M  c #5B351B",
"N  c #5D361B",
"B  c #612C15",
"V  c #63341B",
"C  c #66361B",
"Z  c #623A1E",
"A  c #462D22",
"S  c #4A3621",
"D  c #593B25",
"F  c #643722",
"G  c #653D23",
"H  c #6B3D23",
"J  c #6B3F2A",
"K  c #703E25",
"L  c #2E4322",
"P  c #354722",
"I  c #395027",
"U  c #404719",
"Y  c #564719",
"T  c #464D25",
"R  c #4F4B20",
"E  c #4B5A2E",
"W  c #585529",
"Q  c #504036",
"!  c #445F30",
"~  c #664122",
"^  c #6B4226",
"/  c #66422A",
"(  c #6B432A",
")  c #6D492D",
"_  c #704127",
"`  c #70442B",
"'  c #784D31",
"]  c #79523E",
"[  c #496738",
"{  c #536434",
"}  c #556C3A",
"|  c #4F753B",
" . c #60723D",
".. c #584A4A",
"X. c #785945",
"o. c #645E57",
"O. c #537C43",
"+. c #8E0704",
"@. c #930504",
"#. c #AE0301",
"$. c #C20103",
"%. c #D7070B",
"&. c #E70709",
"*. c #FF0D0F",
"=. c #85634A",
"-. c #8B6653",
";. c #92725E",
":. c #84796D",
">. c #917461",
",. c #2D9900",
"<. c #319C00",
"1. c #389F06",
"2. c #35A300",
"3. c #3CA403",
"4. c #3EA30C",
"5. c #44AA0E",
"6. c #41A616",
"7. c #47AC12",
"8. c #40A518",
"9. c #46AB1A",
"0. c #4AAE1B",
"q. c #4BB210",
"w. c #4CAF21",
"e. c #4FB123",
"r. c #52B325",
"t. c #55B42B",
"y. c #58B72D",
"u. c #57B82D",
"i. c #5BBB2E",
"p. c #57AD31",
"a. c #59B632",
"s. c #5EBC34",
"d. c #5EBC38",
"f. c #60BE36",
"g. c #62BD3A",
"h. c #5D8645",
"j. c #5D8448",
"k. c #638B4B",
"l. c #688F4D",
"z. c #669550",
"x. c #6B9C53",
"c. c #6CA54E",
"v. c #6CB147",
"b. c #67BB43",
"n. c #6ABD45",
"m. c #6EBD4B",
"M. c #70BC4E",
"N. c #6EA354",
"B. c #72A354",
"V. c #71AC56",
"C. c #76AA59",
"Z. c #6FBA51",
"A. c #72B456",
"S. c #71B952",
"D. c #858549",
"F. c #968070",
"G. c #9D8473",
"H. c #A7917F",
"J. c #9F958D",
"K. c #9A9393",
"L. c #B19D8F",
"P. c #AC9A90",
"I. c #B8A494",
"U. c #979CA1",
"Y. c #ADA8A8",
"T. c #B7AAA4",
"R. c #BEB1A9",
"E. c #BCB5B7",
"W. c #C2A59D",
"Q. c #D1B4AF",
"!. c #C4BABD",
"~. c #CCC6C9",
"^. c #D5C9C6",
"/. c #D3CCCB",
"(. c #DAD1C9",
"). c #E1DCDD",
"_. c #E7E0DE",
"`. c #EBE3E2",
"'. c #F1ECEC",
"]. c #FAF7F5",
"[. c #FFFEFE",
/* pixels */
"s.s.f.i.f.f.s.s.s.s.s.s.s.d.s.s.s.s.s.i.s.s.i.a.s.s.d.s.s.d.f.s.f.p.i.i.y.f.f.f.",
"s.s.s.s.s.f.f.s.s.s.a.s.s.s.s.s.s.i.s.s.s.i.s.a.d.a.s.d.d.s.s.d.f.f.f.y.y.f.y.f.",
"s.s.s.s.s.f.s.s.s.s.s.s.s.s.s.i.f.f.i.s.s.s.s.s.s.d.s.d.s.s.s.d.s.i.s.i.i.y.f.a.",
"s.d.f.s.s.f.s.f.s.s.s.s.f.f.9.r.i.i.i.f.s.s.s.N.A.d.d.u.4.u.s.s.s.s.s.s.f.f.f.f.",
"s.d.s.s.s.s.d.d.g.s.s.a.,.6.c.r.f.i.s.s.s.s.Z.*  .0.3.7.4.i.s.s.i.f.i.a.f.i.y.5.",
"d.s.d.d.s.g.d.f.d.s.s.i.,.p.+ k.M.f.s.Z.S.x.L 2 Y  .2.5.0.i.i.i.f.a.f.f.f.i.i.3.",
"s.s.d.s.s.d.d.f.f.f.s.s.r.g.< m P { [ 7 1 % * / N = h.t.u.s.s.s.i.f.f.f.i.f.s.r.",
"s.d.s.s.d.d.s.s.s.f.i.i.s.n., C _ c , H ( ( ( ( m * L s.s.s.i.f.f.f.i.i.f.i.f.a.",
"d.g.s.s.d.d.d.d.s.s.i.i.i.f.{ b ) 9 F ( ( ( ( G ) G 6 A.s.s.s.s.s.i.f.f.f.i.s.s.",
"s.s.s.d.d.a.a.a.s.s.s.s.s.s.x.# = 9 ^ ( ( / 0 Q D / g L V.s.s.s.f.s.s.i.f.f.s.s.",
"s.d.s.s.a.4.t.u.i.s.i.f.s.s.N.  9 / ( ( ( M ..U.e n H , I n.s.i.s.s.s.s.i.f.f.s.",
"s.s.d.s.d.w.4.3.3.i.s.f.d.s.b.T F ( ( ( ( N 2 4 3 m ` ` 0 E { h.n.s.s.s.f.i.i.f.",
"d.s.i.s.i.t.9.4.2.s.d.s.s.d.f.T B ^ ^ ( ^ / Z V V ^ ( J V Z c   5 Z.d.s.s.d.s.s.",
"s.s.s.s.s.i.i.u.u.i.a.s.d.s.f.z.r B ^ ( ^ ( ( ) ( ^ / ( N c ^ x   V.d.f.d.s.d.d.",
"s.s.s.s.s.s.s.i.s.i.s.a.s.s.d.m.q y V ^ ^ ( ) ) ( ( ( ( ) H Z a 6 Z.s.d.f.s.f.s.",
"s.s.s.s.s.i.i.s.s.s.s.s.s.d.d.d.C.$ 1 z M D n S n 0 ; h y y R E k.d.s.s.d.s.d.s.",
"d.s.s.s.s.a.s.s.s.s.s.a.d.g.u.s.D.&.@.$ o . $ +.+.@.r P x.N.Z.d.s.s.d.d.s.s.d.s.",
"s.s.d.s.d.d.s.d.d.s.s.s.t.u.9.t.W #.*.&.%.%.&.*.*.$.& A.d.d.d.s.d.s.f.s.s.d.s.d.",
"d.s.s.d.s.d.d.s.s.s.s.i.,.7.4.v.o @ t d d d s s t ..:.A.d.s.s.d.s.d.f.d.d.f.s.s.",
"d.s.d.s.j.x.s.d.d.s.s.i.<.5.0.j., j f i z g g p m ^.!.V.s.s.d.s.d.s.s.s.s.d.s.d.",
"s.d.s.s.7 z.s.s.s.s.d.s.s.s.N.l.] k H ^ ( J ~ G ( Q.E.V.d.s.s.d.d.s.d.d.s.s.d.s.",
"d.s.s.g.7 i A.d.s.d.d.s.s.m.x.).-.V ( ( ( ( / ^ Z G.~.A.s.d.d.s.s.d.s.s.d.d.s.d.",
"s.d.s.d.y 7 y s.s.f.s.d.s.k.Y.[.;.Z ( ( ( ( ( / ~ =.:.V.s.f.s.s.f.s.d.s.s.d.s.s.",
"d.s.s.s.b.7 y i s.d.d.s.f.V._.].;.Z ( ^ ( ( ( J ~ ^ f V.d.d.s.g.s.d.s.s.d.s.d.s.",
"s.s.s.a.b.y [.y s.d.s.d.V.K.].[.>.Z / ^ ( ( G P.L.~ x V.g.s.s.d.s.d.s.d.s.s.g.s.",
"s.s.s.s.s.y /.y y s.d.A.[ /.].T.X.~ / ( ( Z ] `.[.H.< V.s.g.s.s.s.s.d.s.s.d.s.s.",
"s.s.f.s.i.B.i ' U g.f.x.Y.[./.) ~ ( ( ( ~ X.R.[.[._.D V.s.g.d.s.s.g.d.s.d.d.s.d.",
"i.s.i.i.i.g.W V m N.S.N._.[.G.N ( ( ( ( C L.'.'.[.[.X.N.d.f.s.d.d.s.s.d.s.s.d.s.",
"i.i.f.i.f.i.B.u _ m o.E.[.I./ ( ( ( ( ( H =.J W.^.F.x V.d.a.d.d.s.s.s.s.s.d.s.f.",
"f.i.i.i.i.f.S.7 G ^ (.[.I.D J J ( ( ^ ^ ( Z k M A ~ f V.s.s.s.s.s.f.f.s.s.s.s.s.",
"i.r.i.i.i.i.f.{ u Z J.G.( ~ ( ( ^ ( ^ / G G l y # ( z V.t.s.s.s.i.f.f.s.s.f.s.s.",
"q.5.i.f.f.f.f.A.w X ; C ^ ( ( ( ( ( ) ) 2 M 3 % % K n | 4.t.s.s.s.f.i.s.s.s.s.f.",
"<.r.i.f.i.s.s.f.g.O.= ^ ^ ^ ( ( ( S 9 D : b m o = B V 3 T h.s.u.s.s.s.s.f.s.i.s.",
"e.i.y.f.s.s.f.i.s.m.x C G ^ ( ( ( M 3 - O v - O O ; @ B m ! i.s.u.s.u.s.i.s.f.s.",
"f.a.a.f.i.s.s.s.i.y.C.y j B Z ( ) ( ( H : z m F / n O 3 w x.s.s.i.s.s.s.s.s.s.d.",
"y.y.f.y.s.s.i.s.f.f.g.6 a a a k B k % > o y j k V 8 V.g.g.s.i.i.s.i.s.s.s.s.s.s.",
"f.s.s.s.i.a.s.s.f.i.f.z.E { { { { } S.M.l.E { E } A.s.s.s.f.i.s.u.s.a.s.s.s.f.s.",
"s.a.s.s.s.r.u.s.a.f.i.f.s.s.s.f.i.s.f.f.d.s.g.f.s.s.s.s.s.s.s.f.t.t.s.a.s.f.d.s.",
"s.s.s.a.s.4.9.w.r.f.f.i.f.i.s.s.s.f.s.s.s.d.s.f.s.s.s.s.s.s.i.s.0.8.e.r.u.f.s.s.",
"f.s.d.s.s.w.4.<.1.f.f.i.s.f.f.i.s.s.s.s.s.s.s.f.s.d.d.s.s.f.f.s.d.2.2.2.q.i.d.d."
};
