/* XPM */
static char *result[] = {
/* columns rows colors chars-per-pixel */
"40 40 150 2 ",
"   c #010102",
".  c #050708",
"X  c #07090A",
"o  c #090C0D",
"O  c #150505",
"+  c #130C0E",
"@  c #0B0F10",
"#  c #0E1214",
"$  c #111417",
"%  c #111619",
"&  c #1E1719",
"*  c #141A1D",
"=  c #1D1D1E",
"-  c #270607",
";  c #220B0B",
":  c #290809",
">  c #3A0303",
",  c #3A0F11",
"<  c #231315",
"1  c #2E1113",
"2  c #201A1D",
"3  c #331214",
"4  c #391315",
"5  c #361619",
"6  c #3B1D1D",
"7  c #161D21",
"8  c #1A1F22",
"9  c #361F23",
"0  c #192125",
"q  c #1C252A",
"w  c #1F282D",
"e  c #212121",
"r  c #212628",
"t  c #2F2428",
"y  c #222A2D",
"u  c #292C2D",
"i  c #302627",
"p  c #3B2226",
"a  c #34252A",
"s  c #322A2B",
"d  c #232D32",
"f  c #2B2E31",
"g  c #342F35",
"h  c #392C31",
"j  c #253137",
"k  c #2A3133",
"l  c #263238",
"z  c #2A353B",
"x  c #323435",
"c  c #383131",
"v  c #323639",
"b  c #363A3C",
"n  c #3B3C3D",
"m  c #510202",
"M  c #5D0505",
"N  c #5E0708",
"B  c #550A0B",
"V  c #5D0809",
"C  c #4A1315",
"Z  c #40171A",
"A  c #421E1E",
"S  c #5A1A1D",
"D  c #650B0C",
"F  c #6D0C0C",
"G  c #7C0000",
"H  c #651113",
"J  c #6C1515",
"K  c #6A1518",
"L  c #721F23",
"P  c #7A1F22",
"I  c #472224",
"U  c #4B292E",
"Y  c #512024",
"T  c #582226",
"R  c #51282D",
"E  c #402C31",
"W  c #433737",
"Q  c #423638",
"!  c #5E3A3A",
"~  c #6C2226",
"^  c #6F2B2C",
"/  c #742024",
"(  c #7D2728",
")  c #323D43",
"_  c #3A3F41",
"`  c #3A454A",
"'  c #424444",
"]  c #45494B",
"[  c #4A4B4C",
"{  c #444E53",
"}  c #475156",
"|  c #4F5152",
" . c #525354",
".. c #545758",
"X. c #56595A",
"o. c #5B5C5C",
"O. c #5E5F60",
"+. c #5F6061",
"@. c #636363",
"#. c #6A6A6A",
"$. c #676E72",
"%. c #6C7477",
"&. c #747475",
"*. c #747779",
"=. c #767979",
"-. c #7B7B7B",
";. c #840000",
":. c #8C0607",
">. c #930505",
",. c #980F10",
"<. c #841113",
"1. c #8D1315",
"2. c #87181B",
"3. c #8F191C",
"4. c #951113",
"5. c #99181A",
"6. c #AE0304",
"7. c #AB0C0C",
"8. c #B10606",
"9. c #A21113",
"0. c #B51113",
"q. c #AA3333",
"w. c #C10000",
"e. c #CF0809",
"r. c #D20303",
"t. c #DC0202",
"y. c #C20E10",
"u. c #E90506",
"i. c #F60000",
"p. c #867070",
"a. c #B16666",
"s. c #848585",
"d. c #858A8B",
"f. c #8B8A8A",
"g. c #898F91",
"h. c #8E9193",
"j. c #949494",
"k. c #94999B",
"l. c #9E9F9F",
"z. c #9EA1A2",
"x. c #A3A3A3",
"c. c #AFAFAF",
"v. c #B2B3B4",
"b. c #B5B7B8",
"n. c #B7B9BA",
"m. c #BCBEBF",
"M. c #BDC0C1",
"N. c #C3C4C5",
"B. c #CBCCCC",
"V. c #D4D5D5",
/* pixels */
"e e e e 7.i.J e 0 e e e e e e e e e e e e e e e e e e e e e e e e e 6 t.t.6 e e ",
"e l l l 1.w.S j l l l l l l l l l l l l l l l l l l l l j l l l l j a 6.8.h l e ",
"e l l l 2 W # * q j l l l l l l l l j l l l l l l l l l l l l j d 7 % i s w l e ",
"  j l l u &.* 0 7 7 q j l l l l l l l l l l l l l l l l l l w 0 * 0 8 |  .d l e ",
"  l l l f &.. % * q * * w j j j j l l l l l j l l j j j d 0 * 0 0 * o [  .y l e ",
"  l l l q X...b 0 * 0 0 * 7 # . 7 y l l l l j j q @ o 8 * * 0 * 0 r O.@.| d l e ",
"  j l l = o [ f.u y q * 7 *       o q d j d d $   u r % * * * d d &.&.n v d l e ",
"e j l l w * y  .f.b d d 9 #   n ..  o * % % $     -.n & t j j d &.&.d 0 0 l l e ",
"e l l j 7 o w w ..f.Q T 5.D . x O.o w j j j y #   = + ,.~ U I &.&.d d # % d l e ",
"e l l q % # * d y ..f.( 2.Z . w 0 % j l j l l 0 . d * Y 9.1.p.=.u j 7 % % 7 l e ",
"e l l 0 # * # d l w ..f.^ & . y y * j l j j j 0 . w $ 5 <.p.&.o     % # % % l e ",
"e l l d % * 7 j l l y o.f.u . $ * % j l l l j 0   o # O p.=.u j l l q * % q l 0 ",
"e l l l d q l l l l l 0  .#.$ % . # j j d j j 8 o o * &.&.0 l k l l l w w l l e ",
"e l l l l l l l l l d [ x ' &.z @ o 7 % * * * * * # #.=.r  .k l l l l l l l l e ",
"e l l l 0 * d l d 7 ]  .y y o.f.8 . % % $ $ * @ # &.-.y j _ X.q w l j 7 7 j l e ",
"e l l l _ X.0 d _ ] u y z } *.@.c O . . o o   O + @.%.+._ d f x [ d d n  .d l e ",
"e l l l k.f.$ b +.k d j { M.B.#.A G . # % % . m M  .c.V.$.l j d  .] * [ n.` l e ",
"e l l l n b [ @.l l ` %.v.B.c.z.! ;.# .     $ N F f.x.B.m.g.{ z y u # e ' l j e ",
"e l j j u #.' b ) *.v.B.v.&.v @ : ;.* .     * N N # = O.l.B.N.d.{ l ' | [ d j e ",
"e l j j u &.d.h.x.B.v.=.b * X     > * .     * V m   . # f o.x.B.b.f.l.#. .y l e ",
"e l l l f &.s.-.j.=.b q d l 8 % N ;.* o     * V >.$ * d j y u @.j.&.j.#.| d l e ",
"e l l l k &.x &.b 0 d j l l l l Z 4 * 0 7 * 0 < C f l l l l d q k @. . .| d l e ",
"e l l l 0 Q @ 0   l l l   l l l 0 # * o . . * # * d l l l l l l j y # u k d l e ",
"e l l l 0 # d l l l l l l l l l d . * .     * . 8 l l l l l l l j j j * * j l e ",
"e l j l d * j j l l l l l l l l d - 3 @   . & > 8 l l l l l l l l l l 0 0 j l e ",
"e l j j * o q j l l l l l l l l d V K $ . @ 9 :.8 l l l l l l l l l y # # y l e ",
"e j l 0 * # # d l l l l l l l l d M L d d d E :.0 l l l l l l l l j * * % * j e ",
"  j l q @ * # d l l l l l l l l d B 0.h l l 3.:.0 l l l l l l l l l * # $ % j 0 ",
"    l j 0 % q l l l l l l l l l j 8 >.E l l 4., l l l l l l l l l l d * * d j   ",
"  l l l j w l l l l l l l l l l l 8 :.E l l 4.1 l l l l l l l l l l j d d l j   ",
"e j l l l l l l l l l l l l l l l 8 :.E l l 4.1 l l l l l l l l l l l l l l l   ",
"e j l l l l l l l l l l l l l l l 0 :.E l l 4.1 l l l l l l l l l l l l l l j   ",
"e l l l l l l l l l l l l l l l l 0 :.E l l 4.1 l l l l l l l j l l l l l l l e ",
"e l l l l l l l l l l l l l l l l 8 :.E l l 4.3 l l l l l l l   l l l l l l l e ",
"e l l l l l l l l l l l l l l l l p 8.E l l 9.H l l l l l l         l l l l l e ",
"e l l l l l l l l l l l l l l l l / u.R l g y.0.l l l l l j j l   l l l l l l e ",
"e j l l l l l l l l l l l l l l l Y r.P l U e.<.l l l l l l l l j j l l l l l e ",
"e l j j l l l l l l l l l l l l j d <.R l g 1.a l l l l l l l l l l l l l l j e ",
"e l l   l l l l l l l l j j l l l l 4 1.l ~ D y l l l l l l l l l l l l l l l e ",
"e e e   e e e e e e e e e         e ; q.l.a.m = e e e e 0 e e e e e e e e e e e "
};
