/* XPM */
static char *result[] = {
/* columns rows colors chars-per-pixel */
"40 40 61 1 ",
"  c #010101",
". c #090909",
"X c gray8",
"o c #212121",
"O c #2C2C2C",
"+ c #2D3235",
"@ c #263238",
"# c #2B363C",
"$ c #2D393E",
"% c #363636",
"& c #3B3B3B",
"* c #323D42",
"= c #364146",
"- c #384247",
"; c #3B454A",
": c #3F484D",
"> c #434343",
", c #424A4F",
"< c #4A4A4A",
"1 c #454E53",
"2 c #4A5256",
"3 c #4C5559",
"4 c #545454",
"5 c #5C5C5C",
"6 c #575F64",
"7 c #5B6265",
"8 c #5F6568",
"9 c #636363",
"0 c #61676A",
"q c #656A6C",
"w c #6A6B6C",
"e c #646C70",
"r c #6B6E70",
"t c #6D7172",
"y c #737374",
"u c #727679",
"i c #75797A",
"p c #7B7C7C",
"a c #7C7F80",
"s c #848485",
"d c #858788",
"f c #87898A",
"g c #8B8B8B",
"h c #8D8F90",
"j c #8F9091",
"k c #949595",
"l c #919699",
"z c #979898",
"x c #9A9A9A",
"c c #9EA2A4",
"v c #A2A3A4",
"b c #A2A6A8",
"n c #ABABAC",
"m c #ADB1B2",
"M c #B5B5B5",
"N c #B7B9BA",
"B c #BEBFC0",
"V c #C2C3C4",
"C c #D7D7D7",
"Z c #DCDCDC",
"A c #E0E0E0",
/* pixels */
"ooooooooooooXoooooooooooooooooooooo oooo",
"o@@@@@@@@@@@##@@@@@@@@@@@@@@@@@@@@@ @@@o",
"o@@@@@@@@@@@@@@@@@@@@@@@@@@@@@@@@@@@@@@o",
" @@@@@@@@@@@@@@@@@@@@@@@@@@@@@@@@@@@@@@o",
" @@@@@@@@@@@@@@@@@@@@@@@@@@@@@@@@@@@@@@o",
" @@@@@@@@@@@@@@@@@@@@@@@@@@@@@@@@@@@@@@o",
" @@@@@   @@@@@@@@@@@@@@@@@@@@@@@@@@@@@@o",
"o@@@=gbnnnnb7,,*@@@@@@@@@@@@@@@@@@@@@@@o",
"o@@*ixxxvmmvgjxs11,#@@@@@@@@@@@@@@@@@@@o",
"o@*tg4>>5xx9><ppudg722;@@@@@@@@@@@@@@@@o",
"o*tg5>%%4xx5%%%&%4w99ya777*@@#    @@@@@o",
"o1ku>%%%4xx5%%%%%%%%%>999furt3####@@@@@o",
"%is<%%%%4xx5%%%%%%%%%%%%%449khpau;**$@@o",
"&kp>>>>>5xz9>>>>>>>>>>>>>>><wkkzzfss8==%",
"skgppspasjkgpssytwryytytrrtryiiiiiiitqr9",
"kkkgggjggggjgzN51q;####$#####$##$####$$o",
"gs44444sgggggkCBbZl=@@@@@@@@@@@@@@@@@@#o",
"dw .  .pjggggkCAAAZh*@@@@@@@@@@@@@@@@@#o",
"dw    .pjggggkCAAAZVd*@@@@@@@@@@@@@@@@@o",
"sw     yjggggkCAAAZVb*@@@@@@@@@@@@@@@@@X",
"gw     pggjggkCAAAZMh*@@@@@@@@@@@@@@@@@o",
"sw    .pgggggkCAAACw&@@@@@@@@@@@@@@@@@@o",
"dw     pggjggkCAAAC9+@@@@@@@@@@@@@@@@@@o",
"gp>&>&>sgggkgkCVmAc,@@@@@@@@@@@@@@@@@@@o",
"jjgsggggggsggkB93u:#####@#####*#$$$$$$$O",
"gzjgsssssgggsgkwewewwrwrrwrwtuiuiiiitqq9",
"<js<<<<<9kzw<<<><<<<<<<><<><wkzzkfds0-=%",
"Xps>&%%%4zx9%%%%%%%%%%%%%%<9hhaau:**$@@o",
" Oky&&%%4zx5%%%%%%%%%%>559ryi6###@@@@@@ ",
" *if5&%%4zx9%%&%%%&5ww9qqq*@@@@@@@@@@@@ ",
"o#;is4&&4zx9&&&<tyt8661@@@@@@@@@@@@@@@@ ",
"o@+&skggznmxjddi332$@@@@@@@@@@@@@@@@@@@ ",
"o@@@:kMMMMMNmq3:@@@@@@@@@@@@@@@@@@@@@@@o",
"o@@@@@@@@@@@@@@@@@@@@@@@@@@@@@@ @@@@@@@o",
"o@@@@@@@@@@@@@@@@@@@@@@@@@@@@@    @@@@#o",
"o@@@@@@@@@@@@@@@@@@@@@@@@@@@@@@@ @@@@@#o",
"o@@@@@@@@@@@@@@@@@@@@@@@@@@@@@@@@@@@@@@X",
"o@@@@@@@@@@@@@@@@@@@@@@@@@@@@@@@@@@@@@@o",
"o@@ @@@@@@@@@@@@@@@@@@@@@@@@@@@@@@@@@@@o",
"ooo ooooooooo    ooooooooooooooooooooooo"
};
