/* XPM */
static char *result[] = {
/* columns rows colors chars-per-pixel */
"40 40 256 2 ",
"   c black",
".  c #010101",
"X  c gray1",
"o  c #040404",
"O  c gray13",
"+  c #222222",
"@  c #252525",
"#  c #282828",
"$  c gray18",
"%  c #2F2F2F",
"&  c #263137",
"*  c #2C3234",
"=  c #263238",
"-  c #273338",
";  c #273339",
":  c #283339",
">  c #28343A",
",  c #29343A",
"<  c #29353A",
"1  c #2A353B",
"2  c #2B363C",
"3  c #2B373C",
"4  c #2B373D",
"5  c #2C373D",
"6  c #2D383D",
"7  c #2D383E",
"8  c #2E393F",
"9  c gray19",
"0  c #343434",
"q  c #353535",
"w  c gray21",
"e  c #373737",
"r  c #393939",
"t  c #3A3A3A",
"y  c #3B3D3E",
"u  c #3C3C3C",
"i  c gray24",
"p  c #303B40",
"a  c #303B41",
"s  c #313C42",
"d  c #323D42",
"f  c #323D43",
"g  c #333E43",
"h  c #343E44",
"j  c #343F44",
"k  c #343F45",
"l  c #364046",
"z  c #364146",
"x  c #374247",
"c  c #384247",
"v  c #394347",
"b  c #3B4449",
"n  c #3A444A",
"m  c #3D474C",
"M  c #3D484D",
"N  c #3E494E",
"B  c #3F494E",
"V  c gray25",
"C  c #414141",
"Z  c gray26",
"A  c #434343",
"S  c #444444",
"D  c gray27",
"F  c gray28",
"G  c #434A4D",
"H  c #404A4E",
"J  c #404A4F",
"K  c #484949",
"L  c gray29",
"P  c #4C4C4C",
"I  c gray30",
"U  c #4E4E4E",
"Y  c #424B50",
"T  c #434C50",
"R  c #444D51",
"E  c #454E52",
"W  c #444E53",
"Q  c #454E53",
"!  c #485156",
"~  c #495256",
"^  c #495257",
"/  c #4A5256",
"(  c #4B5357",
")  c #4B5458",
"_  c #4E565A",
"`  c #505050",
"'  c #515151",
"]  c gray32",
"[  c gray33",
"{  c #555555",
"}  c #565656",
"|  c gray34",
" . c #5A5A5A",
".. c gray36",
"X. c #5D5D5D",
"o. c gray37",
"O. c #5F5F5F",
"+. c #555C60",
"@. c #576064",
"#. c #596063",
"$. c #5A6064",
"%. c #5C6265",
"&. c #5D6467",
"*. c #5E6466",
"=. c #5D6568",
"-. c #5D6569",
";. c #5E6468",
":. c #606060",
">. c #626262",
",. c #646464",
"<. c #656565",
"1. c gray40",
"2. c #676767",
"3. c #60676B",
"4. c #62686B",
"5. c #63696B",
"6. c #666869",
"7. c #656B6E",
"8. c #686868",
"9. c DimGray",
"0. c #6A6A6A",
"q. c gray42",
"w. c #686B6D",
"e. c #696D6E",
"r. c #696D6F",
"t. c #6A6D6F",
"y. c #6C6C6C",
"u. c #656D71",
"i. c #6B6E70",
"p. c #6A6F71",
"a. c #6B6F71",
"s. c #6B7072",
"d. c #6C7071",
"f. c #6D7071",
"g. c #6E7071",
"h. c #6D7072",
"j. c #6F7172",
"k. c #6E7274",
"l. c #6F7476",
"z. c #6F777A",
"x. c #727272",
"c. c gray45",
"v. c #717374",
"b. c #727577",
"n. c #737677",
"m. c #747474",
"M. c #767676",
"N. c #767777",
"B. c #777777",
"V. c #727678",
"C. c #737678",
"Z. c #747778",
"A. c #74787A",
"S. c #75797A",
"D. c #75797B",
"F. c #767A7C",
"G. c #797979",
"H. c #7B7B7B",
"J. c #797B7C",
"K. c #787C7E",
"L. c #7A7D7E",
"P. c #7A7D7F",
"I. c gray49",
"U. c gray50",
"Y. c #797D80",
"T. c #7E8081",
"R. c #7E8183",
"E. c #7E8284",
"W. c #808080",
"Q. c #818282",
"!. c gray51",
"~. c #838383",
"^. c #808384",
"/. c #848484",
"(. c gray52",
"). c #858686",
"_. c #868686",
"`. c #868787",
"'. c gray53",
"]. c #848688",
"[. c #83888B",
"{. c #85898B",
"}. c #888888",
"|. c #898989",
" X c #89898A",
".X c #898A8A",
"XX c #888A8B",
"oX c gray54",
"OX c #8A8B8B",
"+X c #8B8B8B",
"@X c #8A8B8C",
"#X c gray55",
"$X c #8D8D8D",
"%X c #8C8D8E",
"&X c #8E8E8E",
"*X c #8E8F8F",
"=X c gray56",
"-X c #8D8F90",
";X c #8C8F91",
":X c #8B9093",
">X c #8F9090",
",X c #8E9091",
"<X c #8F9091",
"1X c #909090",
"2X c gray57",
"3X c #909192",
"4X c #929292",
"5X c #939393",
"6X c #939494",
"7X c gray58",
"8X c #959595",
"9X c gray59",
"0X c #979797",
"qX c #949799",
"wX c #94999B",
"eX c #989898",
"rX c #989899",
"tX c #989999",
"yX c gray60",
"uX c #9A9A9A",
"iX c #9B9B9B",
"pX c gray61",
"aX c #9D9D9D",
"sX c #9D9D9E",
"dX c #9EA2A4",
"fX c #A0A0A0",
"gX c #A1A2A3",
"hX c #A2A2A2",
"jX c #A4A6A7",
"kX c #A2A6A8",
"lX c #ACADAD",
"zX c gray68",
"xX c #AEAEAE",
"cX c #AEAFAF",
"vX c #AFAFAF",
"bX c #AFB0B0",
"nX c #ADB0B2",
"mX c #B0B1B1",
"MX c #B2B2B2",
"NX c #B7B7B7",
"BX c gray72",
"VX c #B9BBBC",
"CX c #BABCBE",
"ZX c #BEBFC0",
"AX c #C3C3C3",
"SX c #C0C3C4",
"DX c gray77",
"FX c gray84",
"GX c #D7D7D7",
"HX c #D8D8D8",
"JX c gray85",
"KX c gainsboro",
"LX c #DDDDDD",
"PX c gray87",
"IX c gray88",
"UX c #E1E1E1",
/* pixels */
"O O O O O O O O O O O O O O O O O O O O O O O O O O O O O O O O O O O   O O O O ",
"O = = = = = = = = = = = = = = = = = = = = = = = = = = = = = = = = = =   = = = O ",
"O = = = = = = = = = = = = = = = = = = = = = = = = = = = = = = = = = = = = = = O ",
"  = = = = = = = = = = = = = = = = = = = = = = = = = = = = = = = = = = = = = = O ",
"  = = = = = = = = = = = = = = = = = = = = = = = = = = = = = = = = = = = = = = O ",
"  = = = = = = = = = = = = = = = = = = = = = = = = = = = = = = = = = = = = = = O ",
"  = = = = =       = = = = = = = = = = = = = = = = = = = = = = = = = = = = = = O ",
"O = = = = = = = = = = = = = = = = = = = = = = = M ^ =.mXBXNXNXBXBXBXqXn = = = O ",
"O = = = = = = = = = = = = = = = = = = = 7 ~ ( ) S. XOX2XaXxXzXuX4X4XyXE.j = = O ",
"O = = = = = = = = = = = = = = = = Q #.#.*.x.c.x.I t t e >.pXyX} r r ' #XD.l = O ",
"O = = = = = = = = = ; ; ; g 4.7.7.6.2.8.o.r w w e e e q :.iXyX[ q e u ..#XF.j O ",
"O = = = = = = 1 4 4 +.A.V.d.O.X.X.S q w w e e e e e e q :.iXyX[ w e e u m.rXE + ",
"O = = 3 s s m K.^.^.3X2X:.P w 0 q w w w w w w w w w w q :.iXyX[ q w w w D Q.R.% ",
"q v v 5.@X@X%XeXeXeX0Xq.L F K K K K K K K K K K K F F D 2.yX0XO.D F F F F W.6XD ",
"2.r.r.k.Z.Z.Z.C.C.C.b.h.t.i.i.i.i.i.i.i.i.e.w.e.i.*X|.(.}.#X#X'._._._._._.1X0X+X",
"@ 1 1 , < < < < < < < < < < < < < < < < > N z.! -.ZX9X+X$X|.|.|.#X&X&X&X$X$X5X4X",
"O = = = = = = = = = = = = = = = = = = & G dXIXnXSXGX8X$X4X&XoX+X!.L C C C S I.$X",
"O = = = = = = = = = = = = = = = = = - * >.HXIXIXUXGX8X+X&X=X#X$XG.X         0.}.",
"O = = = = = = = = = = = = = = = = = : y 9.JXIXIXUXGX8X+X#X#X#X$XG.o       . 0.}.",
"O = = = = = = = = = = = = = = = = = a ,XMXLXIXIXUXGX8X+X#X#X#X$XG.o       . 0.}.",
"O = = = = = = = = = = = = = = = = = f jXDXPXIXIXUXGX8X+X#X#X#X$XG.o       . 0.}.",
"O = = = = = = = = = = = = = = = = = 8 [.AXPXIXIXUXGX8X+X#X#X#X$XG.o       . 0.}.",
"O = = = = = = =   = = =   = = = = = = g :XKXIXIXUXGX8XoX#X#X#X$XG.X         0.}.",
"O = = = = = = = = = = = = = = = = = = = x wXLXkXCXFX8X|.#X#X#X#X/.[ U U U ` U.$X",
"# 6 6 5 5 5 5 5 5 5 5 5 5 5 5 5 5 5 5 5 2 M u.W @.VX8X#X1X+X#X+X+X=X&X$X&X=X7X5X",
"0.a.a.n.L.L.L.J.J.J.J.v.g.j.j.j.j.j.j.j.j.f.t.f.j..X(.~.#X4X$X(.!.~.~.!.~.1XtX}.",
"9 h h ;.].].XXyXyXyXeXy.D C Z A A A A A A A A A A Z Z C 1.uX0XX.C Z Z Z Z U.6XV ",
"  = = < 7 7 c V.K.K.-X7X<.| U q q q w w w w w w w w w q :.iXyX[ q w w w L ).P.$ ",
"    = = = = = ; ; ; _ s.p.A.|.<.,.>.A w w w w e e e e q :.iXyX[ w e e i M.tXT . ",
"  = = = = = = = = = = = = p $.&.&.T.c.,.1.2.] e r e e q :.iXyX[ q w i :.$Xl.d   ",
"O = = = = = = = = = = = = = = = = b / / %.<X`.N.H.B.F u ,.pXuX .u i { &Xl.d =   ",
"O = = = = = = = = = = = = = = = = = = = 4 H Y R {.gX<X>XhXvXvXfXyXyXsXY.s = =   ",
"O = = = = = = = = = = = = = = = = = = = = = = = z B J 3.lXcXbXmXmXmX;Xk = = = O ",
"O = = = = = = = = = = = = = = = = = = = = = = = = = = = = = =   = = = = = = = O ",
"O = = = = = = = = = = = = = = = = = = = = = = = = = = = = =         = = = = = O ",
"O = = = = = = = = = = = = = = = = = = = = = = = = = = = = = = =   = = = = = = O ",
"O = = = = = = = = = = = = = = = = = = = = = = = = = = = = = = = = = = = = = = O ",
"O = = = = = = = = = = = = = = = = = = = = = = = = = = = = = = = = = = = = = = O ",
"O = =   = = = = = = = = = = = = = = = = = = = = = = = = = = = = = = = = = = = O ",
"O O O   O O O O O O O O O         O O O O O O O O O O O O O O O O O O O O O O O "
};
