/* XPM */
static char *result[] = {
/* columns rows colors chars-per-pixel */
"41 40 183 2 ",
"   c #2E0E3D",
".  c #300F3F",
"X  c #2C1539",
"o  c #2F183E",
"O  c #30123F",
"+  c #310F40",
"@  c #321142",
"#  c #381347",
"$  c #341A45",
"%  c #371649",
"&  c #39164B",
"*  c #361D49",
"=  c #391A4D",
"-  c #3D1C52",
";  c #39214E",
":  c #3D2253",
">  c #3F2259",
",  c #411D55",
"<  c #441E5A",
"1  c #4C1F5D",
"2  c #432155",
"3  c #482357",
"4  c #43245C",
"5  c #4C235E",
"6  c #42295D",
"7  c #4F2D5C",
"8  c #50205F",
"9  c #452761",
"0  c #4B2362",
"q  c #462962",
"w  c #4A2A65",
"e  c #4C2D6B",
"r  c #552664",
"t  c #532B64",
"y  c #53266B",
"u  c #512C6C",
"i  c #5F2D6F",
"p  c #4D316E",
"a  c #57376A",
"s  c #552D72",
"d  c #5A2B74",
"f  c #4F3370",
"g  c #523474",
"h  c #5D3576",
"j  c #573679",
"k  c #5A347B",
"l  c #5C3B7E",
"z  c #622B73",
"x  c #612D7C",
"c  c #69367C",
"v  c #603B7F",
"b  c #68457A",
"n  c #5D3780",
"m  c #5F3D81",
"M  c #643382",
"N  c #693684",
"B  c #623A85",
"V  c #693A86",
"C  c #6C378C",
"Z  c #643C8A",
"A  c #6B3B8A",
"S  c #7A378B",
"D  c #753B8D",
"F  c #7B3A8D",
"G  c #6C3F91",
"H  c #743D93",
"J  c #7A3E9C",
"K  c #634181",
"L  c #664089",
"P  c #6C458C",
"I  c #785983",
"U  c #6D4194",
"Y  c #724196",
"T  c #7C4294",
"R  c #754B94",
"E  c #76429B",
"W  c #7A439C",
"Q  c #7C4F9D",
"!  c #775091",
"~  c #7E529B",
"^  c #7E589D",
"/  c #7C6787",
"(  c #7D43A2",
")  c #7E48A2",
"_  c #823C93",
"`  c #833E99",
"'  c #82459D",
"]  c #8A479E",
"[  c #82499C",
"{  c #87569B",
"}  c #83669B",
"|  c #8244A6",
" . c #8A47A2",
".. c #854AA4",
"X. c #8B49A6",
"o. c #8546AA",
"O. c #864BAD",
"+. c #8949AE",
"@. c #944BA4",
"#. c #954BAC",
"$. c #994AAD",
"%. c #8959A4",
"&. c #9553AD",
"*. c #955DAB",
"=. c #8947B0",
"-. c #8D4BB3",
";. c #904EB7",
":. c #9C4DB2",
">. c #944DBA",
",. c #9B4EBB",
"<. c #9254B6",
"1. c #9B55B3",
"2. c #9B51BD",
"3. c #9B5ABA",
"4. c #A14EB4",
"5. c #A34FB9",
"6. c #A353B6",
"7. c #A652BB",
"8. c #AA54BC",
"9. c #A45CBB",
"0. c #A958BE",
"q. c #8768A0",
"w. c #8F63A8",
"e. c #9363AB",
"r. c #9768AF",
"t. c #9563B1",
"y. c #9966B4",
"u. c #9D6CB4",
"i. c #9A77B4",
"p. c #A463B6",
"a. c #A463BC",
"s. c #A36CBB",
"d. c #B167BF",
"f. c #A275B5",
"g. c #A472BA",
"h. c #9C55C0",
"j. c #AC5EC1",
"k. c #A360C5",
"l. c #AC65C4",
"z. c #AE6DCA",
"x. c #B364C3",
"c. c #B36AC4",
"v. c #B86CC7",
"b. c #B76BCA",
"n. c #B96DCA",
"m. c #B472C4",
"M. c #B47BC4",
"N. c #B472CB",
"B. c #BB72CC",
"V. c #B478C8",
"C. c #BC7ECC",
"Z. c #BF77D0",
"A. c #B97AD1",
"S. c #C17DD1",
"D. c #A180BA",
"F. c #B383CE",
"G. c #BA85CC",
"H. c #B198C5",
"J. c #B7A3C6",
"K. c #C194CD",
"L. c #C382D4",
"P. c #C58BD5",
"I. c #C988D7",
"U. c #C78AD9",
"Y. c #CB8DDB",
"T. c #C697D6",
"R. c #CD9DD7",
"E. c #CC92DA",
"W. c #D091DF",
"Q. c #C8BAD5",
"!. c #D3B4D9",
"~. c #DEBCE4",
"^. c #E1BBEA",
"/. c #E0C3E6",
"(. c #E3C4E9",
"). c #E4CBEA",
"_. c #E9D1EE",
"`. c #EBD7F0",
"'. c #ECE7EE",
"]. c #EFECF3",
"[. c #F1E4F3",
"{. c #F5EDF6",
"}. c #FBF8FC",
/* pixels */
"X X X X X X X X X X X X X X X X X X X X X X X X X X X X X X X X X X X X X X X X X ",
"X X X X X X X X X X X X X X X X X X X X X O X X X X X X X X X X X X X X X X X X X ",
"X X X X X X X X X X O @ @ X X X @ O X X X @ @ X @ O X X X X X X X X X X X X X X X ",
"X X X X X X X X X X - k p q $ O O : q @ : J y   @ @ @ X X O X X X X X X X X X X X ",
"X X X X X X X X o 3 t Z j q % @ * 4 w $ 2 | s + @ @ % @ X O O X X X X X X X X X X ",
"X X X X X X X X 2 M.f.g : X + - p : X @ @ $ @ @   = p : . . + + @ @ X X X X X X X ",
"X X X X X X X 3 N v.e.> $ X + * 6 *   + X X - 0 d d g s d 4 - @ @ @ X X X X X X X ",
"X X X X @ @ @ C ,.7.T X @ + @ + X X + @ @ @ u G -.o.g Y ;.B e @ @ X X X X X X X X ",
"X X X X + , s ( -.z 1 @ + + X X O @ @ u u q D #.G R g.a.7.J.J.H M s * X X X X X X ",
"X X X X X t ^ O.| & . @ @ + X + @ + & l Z j [ :.V R G.c.9.).).k.O.G 4 @ X X X X X ",
"X X X X . / ].i.M & + @ @ + + + + . @ e n =.( H #.X.K Z Y 9.n.Y.z.=.n q X X X X X ",
"X X X X . I ).u.A & @ + & - @ + @ & , B ~ F.*.W  .T q e h F ] g.a.>.J h @ X X X X ",
"X X O @ . z 8.,.o.& + + 9 f % + . 4 j $.C.}.R.4.V w @ @ @ + = g ' 8.,.W $ X X X X ",
"X X O @ . c S.%.G F z + = - @ + . w V :.n.~.g.A 9 = @ + @ + @ - 0 d N B 9 ; X X X ",
"X X X + . b Y.^ n 1._ # + + @ % @ s Y 6.x.U.%.f = + + @ + @ @ + @ @ q f g 6 X X X ",
"X O @ @ . w [ g.M.W B w - @ 9 f k ' 6.S.V.Q ) o.j 4 @ . . + + @ X X @ - B w X X X ",
"X @ % = + 4 B s.C.i.} V e - e l W #.8.Y.C.W +.>.H h < < 0 - & @ @ X   , H g X X X ",
"X X 6 p @ - g  .c.{./.7.W Z f A 7.,.h.U.S.8.5.>.5.#.Z ( ;.k w @ + + + < -.N X X X ",
"X X * : @ = 4 C &.R.E.B.1.X.w.*.h.l.z.B.S.n.j.2.b.c...3.z...D M 1 + @ = x 0 X X X ",
"X X X X @ @ @ u H $.d.U.x.7.U.A.>.N.Y.j.c.Y.n.7.L.Z.7.n.E.x.8.2.M @ @ @ + @ X X X ",
"X O O . @ @ @ & - 1 8 t h Z 3.;.H <.b.).~.x.0.>.R P E &.b./.^.8.Y w $ * j w X X X ",
"X @ + @ % @ @ . . . . . > f J J Z  .j.`.(.7.>.O.k g k T 1.)._.c.[ g * $ k 6 X X X ",
"X X X # e 4 + @ @ @ O . @ # % - g E h.Y.I.8.X.A j e # 4 v G.W.W.y.B , O # O X X X ",
"X X X & k w @ @ @ , = @ @ + + - f J 2.N.c.X.N y 9 - O = w p.V.r.t.e.5 O O O X X X ",
"X X + & Z s + + % e q @ + @ + - f J ,.7.:.G 0 X @ @ + + & @.$.s w.E.a   X X X X X ",
"X X X & f N _ 8 + = & @ @ + + % & C j.S.z.=.s + O % q - + 8 d ( 1.x.r   X X X X X ",
"X X X # q C :.z - % @ @ + @ % & & S 0.L.A.-.d + @ & p : . . , =.9.d.r X X X X X X ",
"X X X X @ 4 j ( o.g 4 @ + @ 9 f n X.8.h.;.U 0 + + @ @ @ + . , Z H.{.b + X X X X X ",
"X X X X @ = 9 Z ) ~ b - 0 i } q.( $.8.=.J s , + O O + @ + + , H D.Q.a X X X X X X ",
"X X X X @ @ @ 9 B P.g.g ] l.[./.7.8.4.H k $ @ + X O @ O + + < -.) L : O X X X X X ",
"X X X X X X @ & 4 ! [ ] K./.^.T.[ a.B.P e @ O X O O @ O + c ` >.V 2 X X X X X X X ",
"X X X X X X O @ $ q V 4.!.'.R.g.Z u.G.l q @ O O O O @ O % @.8.;.a X X X X X X X X ",
"X X X X X X X X X $ & < 7 a b m j t 5 = # X : e $ + X ; f M.m.5 % X X X X X X X X ",
"X X X X X X X X O O + . . + 4 q 9 -   X @ * > q % @ ; q l e.{ $ X X X X X X X X X ",
"X X X X X X X X X @ X X O + @ @ @ + O X * p : @ + = p n Z - @ X X X X X X X X X X ",
"X X X X X X X X X X X X X X + @ X r N $ $ ; $ + X $ ; > 4 @ X X X X X X X X X X X ",
"X X X X X X X X X X X X X X @ X X v o.= X X X X X X X X X X X X X X X X X X X X X ",
"X X X X X X X X X X X X X X X X X $ 2 X X X X X X X X X X X X X X X X X X X X X X ",
"X X X X X X X X X X X X X X X X X X X X X X X X X X X X X X X X X X X X X X X X X ",
"X X X X X X X X X X X X X X X X X X X X X X X X X X X X X X X X X X X X X X X X X "
};
