/* XPM */
static char *result[] = {
/* columns rows colors chars-per-pixel */
"40 40 151 2 ",
"   c #010102",
".  c #0E0707",
"X  c #050708",
"o  c #07090A",
"O  c #090C0D",
"+  c #150505",
"@  c #130C0E",
"#  c #0B0F10",
"$  c #0E1214",
"%  c #121415",
"&  c #1E1717",
"*  c #111719",
"=  c #1E1719",
"-  c #141A1D",
";  c #1C1D1D",
":  c #230202",
">  c #210A0A",
",  c #290809",
"<  c #3B0202",
"1  c #3A0F11",
"2  c #241215",
"3  c #2E1113",
"4  c #201A1D",
"5  c #331214",
"6  c #391315",
"7  c #361619",
"8  c #3F1719",
"9  c #361B1E",
"0  c #161D21",
"q  c #1A1F22",
"w  c #291F20",
"e  c #361F23",
"r  c #192125",
"t  c #1C252A",
"y  c #1F282D",
"u  c #212121",
"i  c #212628",
"p  c #2F2428",
"a  c #222A2D",
"s  c #292C2D",
"d  c #302525",
"f  c #3B2226",
"g  c #322828",
"h  c #232D32",
"j  c #2B2E31",
"k  c #342F35",
"l  c #253137",
"z  c #2A3133",
"x  c #263238",
"c  c #2A353B",
"v  c #323435",
"b  c #383131",
"n  c #323639",
"m  c #363A3C",
"M  c #3B3C3D",
"N  c #520304",
"B  c #5D0505",
"V  c #5E0708",
"C  c #550A0B",
"Z  c #4A1315",
"A  c #40171A",
"S  c #421E1E",
"D  c #600404",
"F  c #650B0C",
"G  c #6D0C0C",
"H  c #7C0000",
"J  c #651113",
"K  c #6A1518",
"L  c #721F23",
"P  c #7A1F22",
"I  c #472224",
"U  c #4D2125",
"Y  c #442A2F",
"T  c #4B292E",
"R  c #512024",
"E  c #51282D",
"W  c #402C31",
"Q  c #433737",
"!  c #423638",
"~  c #5E3A3A",
"^  c #6C2226",
"/  c #6F2B2C",
"(  c #7A2323",
")  c #323D43",
"_  c #3A454A",
"`  c #424444",
"'  c #45494B",
"]  c #4A4B4C",
"[  c #444E53",
"{  c #475156",
"}  c #4F5051",
"|  c #525354",
" . c #545758",
".. c #56595A",
"X. c #5B5C5C",
"o. c #565F63",
"O. c #5E5F60",
"+. c #5F6061",
"@. c #636363",
"#. c #6A6A6A",
"$. c #676E72",
"%. c #6C7477",
"&. c #6F767A",
"*. c #747475",
"=. c #747779",
"-. c #767979",
";. c #7B7B7B",
":. c #840000",
">. c #8C0607",
",. c #930505",
"<. c #8D0F10",
"1. c #841113",
"2. c #8D1416",
"3. c #87181B",
"4. c #8F191C",
"5. c #951113",
"6. c #9E1618",
"7. c #99181A",
"8. c #AF0607",
"9. c #A21113",
"0. c #B51113",
"q. c #AB3536",
"w. c #CF0809",
"e. c #D20303",
"r. c #C20E10",
"t. c #E90506",
"y. c #876E6E",
"u. c #867070",
"i. c #867878",
"p. c #B26A6B",
"a. c #848585",
"s. c #858A8B",
"d. c #8B8A8A",
"f. c #898F91",
"g. c #8E9193",
"h. c #949494",
"j. c #94999B",
"k. c #9D9F9F",
"l. c #A3A4A4",
"z. c #AFAFAF",
"x. c #B4AAAA",
"c. c #B2B3B4",
"v. c #B5B7B8",
"b. c #B7B9BA",
"n. c #BCBEBF",
"m. c #BDC0C1",
"M. c #C3C4C5",
"N. c #CBCCCC",
"B. c #CFD0D0",
"V. c #D4D5D5",
"C. c gray87",
/* pixels */
"u u u u u u u u r u u u u u u u u u u u u u u u u u u u u u u u r u u   u u u u ",
"u x x x x x x l x x x x x x x l x x x x x x x x x x x l x x x l x x x   l l x u ",
"u x x x x x x x x x x x x l r r l l x x x x x l x x x l x x h r t l x x c l x u ",
"  l x x x x x x x x x x l q $ * - a t r z s s a M j._ r x h * $ * 0 h 0 i s s & ",
"  x x x x x x x x x x x y * - $ o * $ M *.*.*.#.m d.X.- x t * - $ O * $ | *.*.Q ",
"  x x x x x x x x x x x x t $ * t l h $ b a.s.` ] $ r y x l r $ - y y } ..X - O ",
"  l x x x x       x x x x x h h l x x r *.;.g.n @.m l l x x l y l y | d.M % r % ",
"u l x x x x x l x x x x x x x x x x x l m g.l.m z O.m l x x x x y ..d.m r ; 0 & ",
"u x x x x x x x x x x x x x x x x x x x t *.B.&.l z ] q x x x y  .d.m h - r 0 q ",
"u x x x x l x x x x x x x x x x x x x x h M z.c._ l a ' a x y ..d.! h r r - t u ",
"u x x x x x x x x x x x x x x x x x x x x t -.N.%.x l } ] r } d.( < h - r 0 l u ",
"u x x x x x x x x x x x x x x x x x x l l l m v.c.' c a v | d./ 3.7.f 0 - a x u ",
"u x x x x x x x x x x x x x x x x x x x x l - *.B.m.{ y ` #.s 4 A F $ - - l x u ",
"u x x x x x x x x x x x x x x x x x x x x 0 o v z.N.-.O.*.$ X X o       % l x u ",
"u x x x x x x x x x x x x x x x x x x x l *   $ k.#.@.d.z - $ a i v m   O l x u ",
"u x x x x x x x x x x x x x h h h h a r 8 B X , ~ S b ; # o * a r O. .  0 l x u ",
"w l x x l R L e q q q q 0 w C D B , X $ 6 :.< :.:.H + o O $ * * * O   o h l x u ",
"q * 2 1 <.e.t.8.>.>.>.>.>.,.0.L K 5 - - 0 - - - $ X X * 0 l x x l t $ t x x x u ",
"c.i.q.4.T P E Y W W b Y b W k h $ O X o r o X X X $ o * - h x x x l * l x x x u ",
"C.C.l.x x x x x l ) x x x c x j o     X -         * O * * h x x x h * h x x x u ",
"B.x.p.^ k T k x l l l l x x x h $ X   X -         * o * * h x x x l * l x x x u ",
"] w N F 4.w.r.9.2.5.5.5.5.5.4.W 9 = - - t - - - $ o X * - x x x l h $ h x x x u ",
"q h h h e 1.0.J : 3 3 3 : 1 >.>.>.< X $ 2 B D B V N . $ * 0 r r r $ X % h x x u ",
"w l l l x x x x x x x x x h t 0 r r r - Z >.B B G B > # 0 #   X o       t x l u ",
"q x x x x x x x x x x x x x x x x x c h j %   $ f.| +.*.O O $ y h - ;.s O h x u ",
"u x x x x x x x x x x x x x x x x x x x x * X ; l.z.*.i.#.r # $ % @ M s O x x u ",
"u x x x x x x x x x x x x x x x x x x x x h $ +.N.V.o.h -.%.> 7 U 5.= * q l x u ",
"  x x x x x x x x x x x x x x x x x x x x h z k.n.$.) h i *.y.1.6.^ p - - a x u ",
"    x x x x x x x x x x x x x x x x x x l y X.N.f.x h M | u *.y.<.T l - - r l   ",
"  x x x x x x x x x x x x x x x x x x x l s l.M.{ l z X.z l l -.u.I l 0 r - y   ",
"u l x x x x x x x x x x x x x x x x x x t @.N.s.c a v t l x l s =.*.h h * r r   ",
"u l x x x x x x x x x x x x x x x x x x z h.v.[ l } ] a x x l l s *.=.a r r *   ",
"u x x x x x x x x x x x x l x l x x x a @.=.s.c s ] a l x x x l l h =.=.i - r % ",
"u x x x x x x x x x x x x h * - y l l $ | h.k.` O - h l x x t   0 h s *.@.o 0 @ ",
"u x x x x x x x x x x x h - * * $ q - s | @.#.} u } M 0 x y         r M O.] | d ",
"u x x x x x x x x x x x h - * * $ q - j | } | ] ` b.| 0 l y * *   $ r n } | | g ",
"u x x x x x x x x x x x x h * - a x l h h h h h l _ h l l x t * 0 h x h h h a ; ",
"u x l l x x x x x x x x x x x x x x x x l l l x x x x x x x x x x l x x x x x u ",
"u x x   x x x x x x x x l l x x l x x x l x x x x x x x x x x x x x x x x x x u ",
"u u u   u u u u u u u u u         u u u u r u u u u u u u u u u u u u u r u u u "
};
