/* XPM */
static char *result[] = {
/* columns rows colors chars-per-pixel */
"40 40 148 2 ",
"   c #010102",
".  c #0E0707",
"X  c #050708",
"o  c #07090A",
"O  c #090C0D",
"+  c #150505",
"@  c #180000",
"#  c #130E0F",
"$  c #0B0F10",
"%  c #0E1214",
"&  c #111417",
"*  c #111619",
"=  c #1E1719",
"-  c #141A1D",
";  c #1D1D1E",
":  c #270607",
">  c #210A0A",
",  c #290809",
"<  c #3A0303",
"1  c #3A0F11",
"2  c #241215",
"3  c #2E1113",
"4  c #281D1D",
"5  c #331214",
"6  c #391315",
"7  c #361619",
"8  c #3F1719",
"9  c #361B1E",
"0  c #161E21",
"q  c #1A1F22",
"w  c #192125",
"e  c #1C252A",
"r  c #1F282D",
"t  c #212121",
"y  c #212628",
"u  c #2F2428",
"i  c #222A2D",
"p  c #292C2D",
"a  c #3B2226",
"s  c #322A2B",
"d  c #222D32",
"f  c #2B2E31",
"g  c #342F35",
"h  c #253137",
"j  c #2A3133",
"k  c #263238",
"l  c #2A353B",
"z  c #323435",
"x  c #383131",
"c  c #323639",
"v  c #363A3C",
"b  c #3B3C3D",
"n  c #520304",
"m  c #5D0505",
"M  c #5E0708",
"N  c #550A0B",
"B  c #5D0809",
"V  c #4A1315",
"C  c #421E1E",
"Z  c #571111",
"A  c #600404",
"S  c #650B0C",
"D  c #6D0C0C",
"F  c #7C0000",
"G  c #651113",
"H  c #6A1518",
"J  c #721F23",
"K  c #472224",
"L  c #4D2125",
"P  c #4B292E",
"I  c #512024",
"U  c #582226",
"Y  c #51282D",
"T  c #402C31",
"R  c #433737",
"E  c #423638",
"W  c #5E3A3A",
"Q  c #6C2226",
"!  c #6F2B2C",
"~  c #742024",
"^  c #323D43",
"/  c #3A454A",
"(  c #424444",
")  c #45494B",
"_  c #4B4C4D",
"`  c #444E53",
"'  c #475156",
"]  c #4F5152",
"[  c #525354",
"{  c #545758",
"}  c #56595A",
"|  c #5B5C5C",
" . c #5E5F60",
".. c #5F6061",
"X. c #636363",
"o. c #6A6A6A",
"O. c #676E72",
"+. c #6C7477",
"@. c #747475",
"#. c #747779",
"$. c #767979",
"%. c #7B7B7B",
"&. c #840000",
"*. c #8C0607",
"=. c #8B0C0C",
"-. c #930505",
";. c #8D0F10",
":. c #980F10",
">. c #841113",
",. c #8D1416",
"<. c #87181B",
"1. c #8F191C",
"2. c #951113",
"3. c #9E1618",
"4. c #99181A",
"5. c #AD0202",
"6. c #B30E0F",
"7. c #A21113",
"8. c #B51113",
"9. c #AB3536",
"0. c #C10000",
"q. c #CF0809",
"w. c #D20303",
"e. c #C20E10",
"r. c #E90506",
"t. c #876E6E",
"y. c #867070",
"u. c #867878",
"i. c #B26A6B",
"p. c #848585",
"a. c #858A8B",
"s. c #8B8A8A",
"d. c #8E9193",
"f. c #949494",
"g. c #94999B",
"h. c #9D9F9F",
"j. c #9EA1A2",
"k. c #A3A4A4",
"l. c #AFAFAF",
"z. c #B4AAAA",
"x. c #B2B3B4",
"c. c #B7B9BA",
"v. c #BCBEBF",
"b. c #BDC0C1",
"n. c #C3C4C5",
"m. c #CBCCCC",
"M. c #D4D5D5",
"N. c gray87",
/* pixels */
"t t t t t t t t t t t t t t w t t t t t t t t t t t t t t t t t t t t   t t t t ",
"t k h k k k k k k k k k k k h h k k k k k k k k k k k k k k k k k k h   k h h t ",
"t h k h k k k k h h k k k h k h k k k k k k k k k k k h k k k k k k k k k k k t ",
"@ d d d d h k d w * e k k h h / k i d i d i h k r - * h k k k k k k k k k k k t ",
"5.s [ [ ] c w % * * * r k - [ c.) _ ] _ [ f * w % - % - d k k k k k k k k k k t ",
"5.u ] _ ..b w * % * * r k w b ] t ] o.o.] p - w % - % - i k k k k k k k k k k t ",
"@ * 0 O | #.O     * e k k h d * % ( h.f.[ & h k r - * h k k k k k k k k k k k t ",
"t 0 w - y @.#.p h k k k k k d ) y l s.$.X.y k k k k k k k k k k k k k k k k k t ",
"t d - w w i @.@.d h k k h i _ [ d ` c.f.j h k k k k k k k k k k k k k k k k k t ",
"t h w 0 - d d @.$.p h k h e z i l a.m.X.e k k k k k k k k k k k k h k k k k k t ",
"w k r - w 0 h K y.#.d h p } j h ' n.k.i h h k k k k k k k k         k k k k k t ",
"t k k w - - h P ;.t.%.t ] / d k a.m.| r k k k k k k k k k k k h k k k k k k k t ",
"t k h d * - u Q 3.>.y.@.y p ^ O.v.k.p d k k k k k k k k k k k k k k k k k k k t ",
"t k h h 0 * = :.L 7 + @.$.j ..M.m.X.& d k k k k k k k k k k k k k k k k k k k t ",
"t k k h O t b # * % % w o.%.@.l.k.; X - k k k k k k k k k k k k k k k k k k k t ",
"t k k h % p %.; d i O O $ @...[ s.%   & p h k k k k k k k k k k k k k k k k k t ",
"t k k k w X     X X   O - % > A D m n -.V - w w w w e d k k k k k k k k k k k t ",
"t k k k d *   % 0 w w w * % . n B M A m 2 % X < *.*.*.1 5 3 3 3 3 G 8.>.a d d 0 ",
"t k k k k d * d k k k h - *   O & - - - w 0 - = 9 T 1.2.2.2.2.2.2.7.e.q.,.S n 4 ",
"t k k k k h * d k k k h * * O *         0 X     O d k k k k k k k k x Y g Q i.z.",
"t k k k k h * h k k k d * * O *         0       o h k k k k k k l k k k k k k.N.",
"t k k k k d * d k k k h * * X * X   X X q O X $ & f g T T T T T T T Y ~ P ,.9.u.",
"t k k k h r % e   h h h   * X   & - - - q 0 - 5 H J 6.-.*.*.*.*.*.5.r.w.>.6 2 # ",
"t k k k d X   O * - * % O O + F &.&.< &.6 % X : M M N q w q w q q a ~ I d k k t ",
"t k k k 0   { | w d * X % ; x C W ,   B 8 w d d r d d k k k k k k k k k k k k t ",
"t k k d o   b z r d % * l s.X.o.j.$   & k k k k k k k k k k k k k k k k k k k t ",
"t k k h &         X o % @. .$.m.l.c o 0 k k k k k k k k k k k k k k k k k k k t ",
"  h k h - - % S 8 ; p o.( y ' b.m.@.0 h k k k k k k k k k k k k k k k k k k k t ",
"    k r 0 0 a 4.<.! d.] g d l ` x.x.v d k k k k k k k k k k k k k k k k k k h   ",
"  k h - w - d U <.s.} w ) [ d k +.m.$.e k k k k k k k k k k k k k k k k k k h   ",
"t h r - w w d E s.} i k d _ p d / x.x.v d k k k k k k k k k k k k k k k k k k   ",
"t h 0 w - d v s.} r k h h 0 ) j k #.m.$.w k k k k k k k k k k k k k k k k k h   ",
"t r - 0 w v s.} r h k k k d v ..j ^ k.d.v h k k k k k k k k k k k k k k k k k t ",
"t - w * v s.{ r d d h h k k h v X.c d.u.@.w k h h d d k k k k   k k k k k k k t ",
"Z % * X { [ r i - % 0 h h d w % _ ( p.p.z $ d j e * $ e k k         k k k k k t ",
"0.R @.#.} O - O % * - e k - } s.v o.@.@.@.b & * o * - * r h h k   k k k h k k t ",
"=.; p f y 0 d 0 - % * d k w / g.b p d p j 0 w d - - % w h h k k h h k k k k k t ",
"t h h h k k k h e w d k k k h k k k k k k k k k h w w j h h k k k k k k k k k t ",
"t k k   k k k k k k k k h h k k h k k k k k h k k k k k k k k k k k k k k k k t ",
"t t t   t t t t t t t t t         t t t t t t t w t t t t t t t t t t t t t t t "
};
