/* XPM */
static char *result[] = {
/* columns rows colors chars-per-pixel */
"40 40 146 2 ",
"   c #010102",
".  c #0E0707",
"X  c #050708",
"o  c #07090A",
"O  c #090C0D",
"+  c #150505",
"@  c #130C0E",
"#  c #0B0F10",
"$  c #0E1214",
"%  c #121416",
"&  c #111619",
"*  c #1E1719",
"=  c #141A1D",
"-  c #1C1D1D",
";  c #270607",
":  c #210A0A",
">  c #290809",
",  c #3A0303",
"<  c #3A0F11",
"1  c #241215",
"2  c #2E1113",
"3  c #201A1D",
"4  c #331214",
"5  c #391315",
"6  c #361619",
"7  c #161D21",
"8  c #1A1F22",
"9  c #291F20",
"0  c #361F23",
"q  c #192125",
"w  c #1C252A",
"e  c #1F282D",
"r  c #212121",
"t  c #212628",
"y  c #222A2D",
"u  c #292C2D",
"i  c #302525",
"p  c #3B2226",
"a  c #322828",
"s  c #232D32",
"d  c #2B2E31",
"f  c #342F35",
"g  c #253137",
"h  c #2A3134",
"j  c #263238",
"k  c #2A353B",
"l  c #323435",
"z  c #383131",
"x  c #323639",
"c  c #363A3C",
"v  c #3B3C3D",
"b  c #520304",
"n  c #5D0505",
"m  c #550A0B",
"M  c #5D0809",
"N  c #4A1315",
"B  c #40171A",
"V  c #421E1E",
"C  c #600404",
"Z  c #650B0C",
"A  c #6D0C0C",
"S  c #7C0000",
"D  c #651113",
"F  c #6A1518",
"G  c #721F23",
"H  c #7A1F22",
"J  c #472224",
"K  c #4D2125",
"L  c #442A2F",
"P  c #4B292E",
"I  c #512024",
"U  c #582226",
"Y  c #51282D",
"T  c #402C31",
"R  c #433737",
"E  c #5E3A3A",
"W  c #6C2226",
"Q  c #6F2B2C",
"!  c #7D2728",
"~  c #323D43",
"^  c #3A454A",
"/  c #424444",
"(  c #45494B",
")  c #4B4C4C",
"_  c #444E53",
"`  c #475156",
"'  c #4F5152",
"]  c #525353",
"[  c #545758",
"{  c #56595A",
"}  c #5B5C5C",
"|  c #565F63",
" . c #5E5F60",
".. c #5F6061",
"X. c #636363",
"o. c #6A6A6A",
"O. c #676E72",
"+. c #6C7477",
"@. c #747475",
"#. c #747779",
"$. c #767979",
"%. c #7B7B7B",
"&. c #840000",
"*. c #8C0607",
"=. c #930505",
"-. c #8D0F10",
";. c #980F10",
":. c #841113",
">. c #8D1416",
",. c #87181B",
"<. c #8F191C",
"1. c #951113",
"2. c #9E1618",
"3. c #99181A",
"4. c #AF0607",
"5. c #B30E0F",
"6. c #A21113",
"7. c #B51113",
"8. c #AB3536",
"9. c #CF0809",
"0. c #D20303",
"q. c #C20E10",
"w. c #E90506",
"e. c #876E6E",
"r. c #867070",
"t. c #867878",
"y. c #B26A6B",
"u. c #848585",
"i. c #858A8B",
"p. c #8B8A8A",
"a. c #898F91",
"s. c #8E9193",
"d. c #949494",
"f. c #94999B",
"g. c #9D9F9F",
"h. c #9EA1A2",
"j. c #A3A4A4",
"k. c #AFAFAF",
"l. c #B4AAAA",
"z. c #B2B3B4",
"x. c #B7B9BA",
"c. c #BDC0C1",
"v. c #C3C4C5",
"b. c #CBCCCC",
"n. c #D4D5D5",
"m. c gray87",
/* pixels */
"r r r r r r r r r r r r r r r r q - ) b.m.z.r r r r r r 9 q r r r r r   r r r r ",
"r j j j g j j j j j g j j j j j h s i l.m.t.& j j j j j j j j j j j g   g g j r ",
"r j j j j j j j j j j j j j j j j s b y.j.8.1 j j j j j j j j j j j j j j j j r ",
"  g j j j j j j j j j j j j j j j s C W j >.5 j j j j j j j j j j j j j j j j r ",
"  j j j j j j j j j j j j j j j j a 1.f j P :.s j j j j j j j j j j j j j j j r ",
"  j j j j j j j j j j j j j j j j :.9.P j H 0.I j j j j j j j j j j j j j j j r ",
"  g j j j j       j j j j j j j j 7.q.f j Y w.H j j j j j j j j j j j j j j j r ",
"r g j j j j g g j j j j j j j j j D 6.j j T 4.0 j j j j j j j j j j j j j j h r ",
"r j j j j j j j j j j j j j j j j 2 1.j j T *.q j j j j j j j j j j j j j j j r ",
"r j j j j j j j j j j j j j j j j 2 1.j j T *.q j j j j j j j j j j j j j j j r ",
"r j j j j j j j j j j j j j j j j 2 1.j j T *.8 j j j j j j         j j j j j r ",
"r j j j j j j j j j j j j j j j j 2 1.j j T *.q j j j j j j j g j j j j j j j q ",
"r j j j s s j j j j j j j j j j j 2 1.j j T *.q j j j j j j j j j j j e g j g r ",
"r j j s = = s j j j j j j j j j j < ;.j j T =.r j j j j j j j j j j w = q g j r ",
"r j j & & $ & j j j j j j j j j q *.<.j j f 5.m s j j j j j j j j s $ = O q j r ",
"r g g = & = = j j j j j j j j j 8 *.L j s s G n s j j j j j j j j e & & = q j r ",
"r j j e $ $ s j j j j j j j j j 8 *.0 # o $ F n s j j j j j j j j g w O = g j r ",
"r j j j 8 8 s j j j j j j j j j 8 , * X   O 4 ; s j j j j j j j j g g & e g j r ",
"r j j j = = j j j j j j j j j j 8 X 7     X = X s j j j j j j j g g y $ w j j r ",
"r j h s d y $ y j j j j j j j s 7 # 7   X O = $ q g j j j j j j h w # v q g j r ",
"r j j s ] ] ] X.d y s j j j j d N 1 q 7 7 7 7 5 B g j j j g s w c @.l @.h j j r ",
"r j j s ' X.d.$.d.X.y s s s = % *.M =     o = &.M & 7 g s w c $.d.%.u.@.u j j r ",
"q j j e ' o.g.i.l.b.j.} - $ X   n n =     X = ,     o = c $.z.b.h.s.u.@.u j j r ",
"r j j s ) ] / k _ i.v.v.j. .- $ n n =     X = &.> # x @.z.b.z.#.~ c / o.u j j r ",
"r h j j / r $ y s k _ a.c.b.j.a.A n $     X $ &.E j.z.b.z.+.^ g h X.) c v j j r ",
"r j j ^ x.' & ) ] y j j O.n.k.] C b o & & $ X S V o.b.c._ g g h ..c $ p.f.j g r ",
"r j j s [ v s s ) l u y ~ | @...: . X o o o X + z X.#.` k s y ( c g q } ^ g g r ",
"  j j s 7 7 s g y t } ^ s s %.@.$ $ & & & & & o - p.} y s ] ( - s j e = q g j r ",
"    j j g g j j j j s ] t $.o.# = = = & & & 7 O O x @./ l ) s g j j j j j j g   ",
"  j j j y e j j j j g q @.@.7 O O 8 j s g g g $ o % % o.] q j h j j g w s j g   ",
"r g j w & & w j j g u $.r.: # #   8 j j j j g & & $ o y p.{ e j g g 7 = & s j   ",
"r j j & & & & j j u $.e.:.6 & e X q j j j j g & s y o 3 Q p.{ e g s $ = $ q g   ",
"r j j 7 & & 7 s s @.r.-.2.K & s o q j g j j j & q w X B ,.! p.[ y s & $ & w g r ",
"r g j s & $ s s #.@.J P W ;.@ =   $ s g g g w O ..x X Z 3.U R p.[ e e O q g j r ",
"r j j j q q d $.@.u g g a 1 v %.X   $ & $ $ $   ] v   # p s   t p.) y = e j j r ",
"r j j g x v @.@.s s 7 7 = % t u   $ s g g g w O       = 7 = w s y p.' O q j j r ",
"r j g s ' X.} t q = q = & 7 # # w s j j j j j y - O $ 7 = q q & q c { { t h j r ",
"r j g s ' ) o = q q = 7 s j g g j j j j j j j j g g g g e 7 = w = &   @.u j h r ",
"r g j   ] ' 7 q = 7 e j g g g j g j j j j j g j g g h j j g w = q q % @.u g j r ",
"r r r   i i % % 3 q r r r         r r r r r r r q r r r r r r r - % O R 3 r r r "
};
